<svg width="11" height="28" viewBox="0 0 11 28" fill="none" xmlns="http://www.w3.org/2000/svg">
  <path d="M1.15806 9.65276C3.61955 9.79329 6.08103 9.96608 8.54021 10.1435C8.68519 10.1583 8.82492 10.2057 8.9489 10.2822C9.07289 10.3586 9.17791 10.4622 9.25606 10.585C9.33421 10.7079 9.38347 10.8468 9.40013 10.9914C9.41679 11.1359 9.40042 11.2824 9.35225 11.4197C7.48794 17.3478 4.62134 22.9134 0.876614 27.8755C0.82961 27.935 0.763389 27.9763 0.689258 27.9925C0.615126 28.0086 0.53768 27.9986 0.470146 27.964C0.402613 27.9295 0.349181 27.8726 0.318969 27.8031C0.288758 27.7336 0.28364 27.6558 0.304495 27.5829C1.58484 22.0539 2.10851 16.5042 0.228369 10.9774C0.219308 10.9525 0.211606 10.9271 0.205299 10.9014V10.8784C0.165534 10.7332 0.160162 10.5807 0.189606 10.4331C0.21905 10.2854 0.282501 10.1467 0.374939 10.0278C0.467377 9.90886 0.586262 9.81307 0.722185 9.74798C0.858107 9.68289 1.00734 9.65029 1.15806 9.65276V9.65276ZM3.0036 6.37912C2.65319 6.07754 2.37357 5.70261 2.18459 5.28097C1.99561 4.85933 1.9019 4.40131 1.91011 3.93943C1.89601 3.40886 1.99813 2.88162 2.20932 2.39456C2.4205 1.9075 2.73567 1.47239 3.13278 1.11963C3.9479 0.373209 5.02446 0 6.36248 0C7.57899 0 8.55098 0.307168 9.27843 0.921505C9.63109 1.20916 9.91317 1.57357 10.1031 1.98685C10.293 2.40013 10.3858 2.85132 10.3742 3.3059C10.3916 3.85217 10.2895 4.39566 10.0752 4.89855C9.86085 5.40143 9.53936 5.85165 9.13309 6.21785C8.30721 6.98731 7.22603 7.37204 5.88956 7.37204C4.69918 7.37204 3.73873 7.04107 3.00821 6.37912H3.0036Z" fill="#02B4D7" />
</svg>