<svg width="13" height="13" viewBox="0 0 13 13" fill="none" xmlns="http://www.w3.org/2000/svg">
  <path d="M7.25306 12.2321L12.4104 7.06121C12.6598 6.81382 12.6598 6.40953 12.4104 6.15948L7.25306 0.991244C7.00634 0.7412 6.60309 0.7412 6.35373 0.991244L5.76477 1.58175C5.5101 1.83445 5.51539 2.24674 5.77539 2.4941L8.97218 5.5477H1.34764C0.994806 5.5477 0.710938 5.83232 0.710938 6.18608V7.03726C0.710938 7.39103 0.994806 7.67565 1.34764 7.67565H8.97218L5.77539 10.7292C5.51805 10.9766 5.51274 11.3889 5.76477 11.6416L6.35373 12.2321C6.60045 12.4821 7.0037 12.4821 7.25306 12.2321Z" fill="#06152B" />
</svg>