<svg width="25" height="24" viewBox="0 0 25 24" fill="none" xmlns="http://www.w3.org/2000/svg">
  <path d="M8.75 4.49955V2.24805C8.75 2.04914 8.82902 1.85837 8.96967 1.71772C9.11032 1.57706 9.30109 1.49805 9.5 1.49805H15.5C15.6989 1.49805 15.8897 1.57706 16.0303 1.71772C16.171 1.85837 16.25 2.04914 16.25 2.24805V4.49955H22.25C22.4489 4.49955 22.6397 4.57857 22.7803 4.71922C22.921 4.85987 23 5.05064 23 5.24955C23 5.44846 22.921 5.63923 22.7803 5.77988C22.6397 5.92053 22.4489 5.99955 22.25 5.99955H2.75C2.55109 5.99955 2.36032 5.92053 2.21967 5.77988C2.07902 5.63923 2 5.44846 2 5.24955C2 5.05064 2.07902 4.85987 2.21967 4.71922C2.36032 4.57857 2.55109 4.49955 2.75 4.49955H8.75ZM10.25 4.49955H14.75V2.99955H10.25V4.49955ZM5 22.4996C4.80109 22.4996 4.61032 22.4206 4.46967 22.2799C4.32902 22.1392 4.25 21.9485 4.25 21.7496V5.99955H20.75V21.7496C20.75 21.9485 20.671 22.1392 20.5303 22.2799C20.3897 22.4206 20.1989 22.4996 20 22.4996H5ZM10.25 17.9996C10.4489 17.9996 10.6397 17.9205 10.7803 17.7799C10.921 17.6392 11 17.4485 11 17.2496V9.74956C11 9.55064 10.921 9.35988 10.7803 9.21923C10.6397 9.07857 10.4489 8.99956 10.25 8.99956C10.0511 8.99956 9.86032 9.07857 9.71967 9.21923C9.57902 9.35988 9.5 9.55064 9.5 9.74956V17.2496C9.5 17.4485 9.57902 17.6392 9.71967 17.7799C9.86032 17.9205 10.0511 17.9996 10.25 17.9996ZM14.75 17.9996C14.9489 17.9996 15.1397 17.9205 15.2803 17.7799C15.421 17.6392 15.5 17.4485 15.5 17.2496V9.74956C15.5 9.55064 15.421 9.35988 15.2803 9.21923C15.1397 9.07857 14.9489 8.99956 14.75 8.99956C14.5511 8.99956 14.3603 9.07857 14.2197 9.21923C14.079 9.35988 14 9.55064 14 9.74956V17.2496C14 17.4485 14.079 17.6392 14.2197 17.7799C14.3603 17.9205 14.5511 17.9996 14.75 17.9996Z" fill="#FF4B4B" />
</svg>