<svg width="28" height="28" viewBox="0 0 32 32" fill="none" xmlns="http://www.w3.org/2000/svg">
  <path d="M29 5H3C2.44687 5 2 5.44687 2 6V26C2 26.5531 2.44687 27 3 27H29C29.5531 27 30 26.5531 30 26V6C30 5.44687 29.5531 5 29 5ZM4.25 7.25H27.75V11H4.25V7.25ZM27.75 24.75H4.25V13.75H27.75V24.75ZM20.3438 22.75H25.5C25.6375 22.75 25.75 22.6375 25.75 22.5V20.25C25.75 20.1125 25.6375 20 25.5 20H20.3438C20.2062 20 20.0938 20.1125 20.0938 20.25V22.5C20.0938 22.6375 20.2062 22.75 20.3438 22.75Z" fill="#D6E0E8" />
</svg>