<svg width="152" height="152" viewBox="0 0 152 152" fill="none" xmlns="http://www.w3.org/2000/svg">
  <path opacity="0.2" d="M146.571 149.285C146.571 148.748 146.73 148.224 147.028 147.777C147.327 147.331 147.751 146.983 148.247 146.777C148.743 146.572 149.289 146.518 149.815 146.623C150.342 146.728 150.826 146.987 151.205 147.366C151.585 147.746 151.843 148.23 151.948 148.756C152.053 149.283 151.999 149.829 151.793 150.325C151.587 150.821 151.239 151.245 150.793 151.543C150.346 151.841 149.821 152 149.284 152C148.928 152 148.575 151.93 148.246 151.793C147.916 151.657 147.617 151.457 147.365 151.205C147.113 150.953 146.913 150.653 146.777 150.324C146.641 149.995 146.571 149.642 146.571 149.285ZM130.284 149.285C130.284 148.749 130.444 148.224 130.742 147.777C131.04 147.331 131.464 146.983 131.96 146.777C132.456 146.572 133.002 146.518 133.529 146.623C134.055 146.728 134.539 146.986 134.919 147.366C135.298 147.746 135.557 148.229 135.661 148.756C135.766 149.282 135.712 149.828 135.507 150.324C135.302 150.82 134.954 151.244 134.507 151.542C134.061 151.841 133.536 152 132.999 152C132.643 152 132.289 151.93 131.96 151.794C131.631 151.657 131.331 151.457 131.079 151.205C130.827 150.953 130.627 150.654 130.491 150.324C130.354 149.995 130.284 149.642 130.284 149.285ZM113.998 149.285C113.998 148.749 114.157 148.224 114.456 147.777C114.754 147.331 115.178 146.983 115.674 146.778C116.17 146.572 116.715 146.518 117.242 146.623C117.768 146.728 118.252 146.986 118.632 147.366C119.011 147.745 119.27 148.229 119.375 148.755C119.48 149.282 119.426 149.827 119.221 150.324C119.016 150.82 118.668 151.244 118.222 151.542C117.775 151.84 117.251 152 116.714 152C115.994 152 115.303 151.714 114.794 151.205C114.285 150.696 113.999 150.005 113.999 149.285H113.998ZM97.7118 149.285C97.7118 148.749 97.8709 148.224 98.1692 147.777C98.4674 147.331 98.8913 146.983 99.3873 146.778C99.8832 146.572 100.429 146.518 100.956 146.623C101.482 146.728 101.966 146.986 102.345 147.366C102.725 147.745 102.984 148.229 103.089 148.755C103.193 149.282 103.14 149.827 102.935 150.324C102.729 150.82 102.382 151.244 101.935 151.542C101.489 151.84 100.964 152 100.427 152C99.7074 152 99.017 151.714 98.5079 151.205C97.9988 150.696 97.7128 150.005 97.7128 149.285H97.7118ZM81.4265 149.285C81.4265 148.749 81.5856 148.224 81.8839 147.777C82.1821 147.331 82.606 146.983 83.102 146.778C83.5979 146.572 84.1437 146.518 84.6702 146.623C85.1968 146.728 85.6805 146.986 86.0602 147.366C86.4398 147.745 86.6984 148.229 86.8033 148.755C86.9082 149.282 86.8546 149.827 86.6493 150.324C86.444 150.82 86.0962 151.244 85.6499 151.542C85.2037 151.84 84.679 152 84.1421 152C83.7857 152 83.4327 151.93 83.1034 151.793C82.7742 151.657 82.475 151.457 82.223 151.205C81.971 150.953 81.7711 150.653 81.6348 150.324C81.4985 149.995 81.4285 149.642 81.4286 149.285H81.4265ZM65.1401 149.285C65.1401 148.749 65.2993 148.224 65.5975 147.777C65.8957 147.331 66.3196 146.983 66.8156 146.778C67.3116 146.572 67.8573 146.518 68.3839 146.623C68.9104 146.728 69.3941 146.986 69.7738 147.366C70.1535 147.745 70.4121 148.229 70.517 148.755C70.6218 149.282 70.5682 149.827 70.3629 150.324C70.1576 150.82 69.8099 151.244 69.3636 151.542C68.9173 151.84 68.3926 152 67.8557 152C67.4993 152 67.1464 151.93 66.8171 151.793C66.4878 151.657 66.1886 151.457 65.9366 151.205C65.6846 150.953 65.4848 150.653 65.3485 150.324C65.2122 149.995 65.1421 149.642 65.1422 149.285H65.1401ZM48.8537 149.285C48.8537 148.749 49.0129 148.224 49.311 147.778C49.6091 147.331 50.0329 146.983 50.5287 146.778C51.0246 146.572 51.5702 146.518 52.0967 146.623C52.6232 146.727 53.1069 146.985 53.4867 147.365C53.8664 147.744 54.1252 148.227 54.2303 148.754C54.3354 149.28 54.2821 149.826 54.0772 150.322C53.8722 150.818 53.5248 151.242 53.0788 151.541C52.6328 151.84 52.1083 151.999 51.5715 152C50.8516 152 50.1611 151.714 49.652 151.205C49.1429 150.696 48.8569 150.005 48.8569 149.285H48.8537ZM32.5674 149.285C32.5674 148.749 32.7265 148.224 33.0246 147.778C33.3228 147.331 33.7465 146.983 34.2424 146.778C34.7382 146.572 35.2839 146.518 35.8104 146.623C36.3368 146.727 36.8205 146.985 37.2003 147.365C37.5801 147.744 37.8389 148.227 37.944 148.754C38.0491 149.28 37.9958 149.826 37.7908 150.322C37.5858 150.818 37.2384 151.242 36.7924 151.541C36.3464 151.84 35.8219 151.999 35.2852 152C34.5652 152 33.8747 151.714 33.3657 151.205C32.8566 150.696 32.5706 150.005 32.5706 149.285H32.5674ZM16.2821 149.285C16.2821 148.749 16.4412 148.224 16.7393 147.778C17.0375 147.331 17.4613 146.983 17.9571 146.778C18.4529 146.572 18.9986 146.518 19.5251 146.623C20.0515 146.727 20.5352 146.985 20.915 147.365C21.2948 147.744 21.5536 148.227 21.6587 148.754C21.7638 149.28 21.7105 149.826 21.5055 150.322C21.3005 150.818 20.9531 151.242 20.5071 151.541C20.0611 151.84 19.5366 151.999 18.9999 152C18.6434 152 18.2905 151.93 17.9612 151.793C17.6319 151.657 17.3327 151.457 17.0808 151.205C16.8288 150.953 16.6289 150.653 16.4926 150.324C16.3563 149.995 16.2862 149.642 16.2864 149.285H16.2821ZM8.44586e-07 149.285C8.8633e-07 148.748 0.159235 148.224 0.457563 147.777C0.755892 147.331 1.17991 146.983 1.676 146.777C2.17208 146.572 2.71795 146.518 3.24455 146.623C3.77116 146.728 4.25485 146.987 4.63444 147.366C5.01404 147.746 5.27249 148.23 5.37712 148.756C5.48174 149.283 5.42783 149.829 5.2222 150.325C5.01658 150.821 4.66848 151.245 4.22193 151.543C3.77538 151.841 3.25044 152 2.7135 152C2.35707 152 2.00413 151.93 1.67484 151.793C1.34556 151.657 1.04637 151.457 0.794389 151.205C0.542403 150.953 0.34255 150.653 0.206247 150.324C0.0699433 149.995 -0.00013976 149.642 8.44586e-07 149.285ZM146.571 133C146.571 132.463 146.73 131.938 147.028 131.492C147.327 131.045 147.751 130.698 148.247 130.492C148.743 130.287 149.289 130.233 149.815 130.338C150.342 130.443 150.826 130.701 151.205 131.081C151.585 131.461 151.843 131.945 151.948 132.471C152.053 132.998 151.999 133.544 151.793 134.04C151.587 134.536 151.239 134.96 150.793 135.258C150.346 135.556 149.821 135.715 149.284 135.715C148.928 135.715 148.575 135.644 148.246 135.508C147.916 135.372 147.617 135.172 147.365 134.92C147.113 134.667 146.913 134.368 146.777 134.039C146.641 133.71 146.571 133.357 146.571 133ZM130.284 133C130.284 132.463 130.444 131.938 130.742 131.492C131.04 131.045 131.464 130.698 131.96 130.492C132.457 130.287 133.002 130.233 133.529 130.338C134.056 130.443 134.539 130.701 134.919 131.081C135.299 131.461 135.557 131.945 135.662 132.471C135.766 132.998 135.712 133.544 135.507 134.04C135.301 134.536 134.953 134.96 134.506 135.258C134.06 135.556 133.535 135.715 132.998 135.715C132.642 135.715 132.289 135.644 131.959 135.508C131.63 135.372 131.331 135.172 131.079 134.92C130.827 134.667 130.627 134.368 130.491 134.039C130.354 133.71 130.284 133.357 130.284 133ZM113.998 133C113.998 132.463 114.157 131.938 114.456 131.492C114.754 131.046 115.178 130.698 115.674 130.492C116.17 130.287 116.716 130.233 117.242 130.338C117.769 130.442 118.253 130.701 118.632 131.081C119.012 131.46 119.27 131.944 119.375 132.471C119.48 132.997 119.426 133.543 119.221 134.039C119.015 134.535 118.667 134.959 118.221 135.257C117.774 135.555 117.25 135.715 116.713 135.715C115.993 135.714 115.303 135.428 114.794 134.919C114.285 134.41 113.999 133.72 113.999 133H113.998ZM97.7118 133C97.7118 132.463 97.871 131.938 98.1692 131.492C98.4675 131.046 98.8915 130.698 99.3875 130.492C99.8835 130.287 100.429 130.233 100.956 130.338C101.482 130.442 101.966 130.701 102.346 131.081C102.725 131.46 102.984 131.944 103.089 132.471C103.193 132.997 103.14 133.543 102.934 134.039C102.729 134.535 102.381 134.959 101.934 135.257C101.488 135.555 100.963 135.715 100.426 135.715C99.7066 135.714 99.0164 135.428 98.5075 134.919C97.9987 134.41 97.7128 133.72 97.7128 133H97.7118ZM81.4265 133C81.4265 132.463 81.5857 131.938 81.884 131.492C82.1824 131.045 82.6064 130.698 83.1025 130.492C83.5985 130.287 84.1444 130.233 84.671 130.338C85.1976 130.443 85.6813 130.701 86.0609 131.081C86.4405 131.461 86.699 131.945 86.8036 132.471C86.9082 132.998 86.8543 133.544 86.6487 134.04C86.443 134.536 86.0949 134.96 85.6484 135.258C85.2018 135.556 84.6769 135.715 84.14 135.715C83.4205 135.714 82.7307 135.428 82.2222 134.919C81.7138 134.41 81.4283 133.72 81.4286 133H81.4265ZM65.1401 133C65.1401 132.463 65.2993 131.938 65.5977 131.492C65.896 131.045 66.32 130.698 66.8161 130.492C67.3122 130.287 67.858 130.233 68.3847 130.338C68.9113 130.443 69.3949 130.701 69.7745 131.081C70.1541 131.461 70.4126 131.945 70.5172 132.471C70.6218 132.998 70.5679 133.544 70.3623 134.04C70.1567 134.536 69.8086 134.96 69.362 135.258C68.9155 135.556 68.3905 135.715 67.8536 135.715C67.1341 135.714 66.4443 135.428 65.9359 134.919C65.4274 134.41 65.142 133.72 65.1422 133H65.1401ZM48.8537 133C48.8537 132.463 49.0129 131.938 49.3112 131.492C49.6095 131.046 50.0335 130.698 50.5295 130.492C51.0255 130.287 51.5713 130.233 52.0979 130.338C52.6245 130.442 53.1082 130.701 53.4878 131.081C53.8674 131.46 54.126 131.944 54.2307 132.471C54.3355 132.997 54.2817 133.543 54.0762 134.039C53.8708 134.535 53.5229 134.959 53.0764 135.257C52.63 135.555 52.1052 135.715 51.5683 135.715C50.8489 135.714 50.1593 135.427 49.6509 134.918C49.1425 134.409 48.8569 133.72 48.8569 133H48.8537ZM32.5674 133C32.5674 132.463 32.7266 131.938 33.0249 131.492C33.3231 131.046 33.7471 130.698 34.2431 130.492C34.7391 130.287 35.285 130.233 35.8115 130.338C36.3381 130.442 36.8218 130.701 37.2014 131.081C37.5811 131.46 37.8396 131.944 37.9444 132.471C38.0491 132.997 37.9953 133.543 37.7899 134.039C37.5844 134.535 37.2365 134.959 36.7901 135.257C36.3437 135.555 35.8188 135.715 35.2819 135.715C34.5625 135.714 33.8729 135.427 33.3645 134.918C32.8561 134.409 32.5706 133.72 32.5706 133H32.5674ZM16.2821 133C16.2821 132.463 16.4413 131.938 16.7396 131.492C17.038 131.045 17.462 130.698 17.9581 130.492C18.4542 130.287 19 130.233 19.5266 130.338C20.0532 130.443 20.5369 130.701 20.9165 131.081C21.2961 131.461 21.5546 131.945 21.6592 132.471C21.7638 132.998 21.7099 133.544 21.5043 134.04C21.2987 134.536 20.9506 134.96 20.504 135.258C20.0575 135.556 19.5325 135.715 18.9956 135.715C18.2765 135.714 17.5872 135.427 17.0792 134.918C16.5713 134.409 16.2861 133.719 16.2864 133H16.2821ZM8.44586e-07 133C8.8633e-07 132.463 0.159235 131.938 0.457563 131.492C0.755892 131.045 1.17991 130.698 1.676 130.492C2.17208 130.287 2.71795 130.233 3.24455 130.338C3.77116 130.443 4.25485 130.701 4.63444 131.081C5.01404 131.461 5.27249 131.945 5.37712 132.471C5.48174 132.998 5.42783 133.544 5.2222 134.04C5.01658 134.536 4.66848 134.96 4.22193 135.258C3.77538 135.556 3.25044 135.715 2.7135 135.715C2.35707 135.715 2.00413 135.644 1.67484 135.508C1.34556 135.372 1.04637 135.172 0.794389 134.92C0.542403 134.667 0.34255 134.368 0.206247 134.039C0.0699433 133.71 -0.00013976 133.357 8.44586e-07 133ZM146.571 116.715C146.571 116.178 146.73 115.653 147.028 115.206C147.326 114.76 147.75 114.412 148.246 114.206C148.742 114 149.288 113.947 149.815 114.051C150.341 114.156 150.825 114.415 151.205 114.794C151.585 115.174 151.843 115.658 151.948 116.184C152.053 116.711 151.999 117.257 151.793 117.753C151.588 118.249 151.239 118.673 150.793 118.971C150.346 119.269 149.821 119.429 149.284 119.428C148.565 119.428 147.875 119.142 147.366 118.633C146.857 118.124 146.571 117.434 146.571 116.715ZM130.284 116.715C130.284 116.178 130.443 115.653 130.742 115.206C131.04 114.76 131.464 114.412 131.96 114.206C132.456 114 133.002 113.947 133.528 114.051C134.055 114.156 134.539 114.415 134.919 114.794C135.298 115.174 135.557 115.658 135.662 116.184C135.766 116.711 135.712 117.257 135.507 117.753C135.301 118.249 134.953 118.673 134.507 118.971C134.06 119.269 133.535 119.429 132.998 119.428C132.278 119.428 131.588 119.142 131.08 118.633C130.571 118.124 130.285 117.434 130.284 116.715ZM113.998 116.715C113.998 116.178 114.157 115.653 114.455 115.206C114.753 114.76 115.177 114.412 115.673 114.206C116.169 114.001 116.715 113.947 117.242 114.051C117.768 114.156 118.252 114.414 118.632 114.794C119.012 115.173 119.27 115.657 119.375 116.184C119.48 116.71 119.426 117.256 119.221 117.752C119.015 118.248 118.667 118.672 118.221 118.971C117.775 119.269 117.25 119.428 116.713 119.428C115.993 119.428 115.303 119.142 114.795 118.633C114.286 118.124 114 117.434 113.999 116.715H113.998ZM97.7118 116.715C97.7115 116.178 97.8706 115.653 98.1687 115.206C98.4669 114.76 98.8908 114.412 99.3868 114.206C99.8828 114.001 100.429 113.947 100.955 114.051C101.482 114.156 101.966 114.414 102.345 114.794C102.725 115.173 102.984 115.657 103.089 116.184C103.193 116.71 103.14 117.256 102.934 117.752C102.729 118.248 102.381 118.672 101.935 118.971C101.488 119.269 100.963 119.428 100.426 119.428C99.7068 119.428 99.017 119.142 98.5082 118.633C97.9995 118.124 97.7134 117.434 97.7128 116.715H97.7118ZM81.4265 116.715C81.4262 116.178 81.5853 115.653 81.8835 115.206C82.1817 114.76 82.6057 114.412 83.1017 114.206C83.5978 114 84.1437 113.947 84.6704 114.051C85.197 114.156 85.6808 114.415 86.0605 114.794C86.4402 115.174 86.6988 115.658 86.8035 116.184C86.9082 116.711 86.8544 117.257 86.6488 117.753C86.4432 118.249 86.0951 118.673 85.6485 118.971C85.2019 119.269 84.6769 119.429 84.14 119.428C83.4208 119.427 82.7313 119.141 82.2229 118.632C81.7146 118.124 81.4289 117.434 81.4286 116.715H81.4265ZM65.1401 116.715C65.1399 116.178 65.2989 115.653 65.5971 115.206C65.8953 114.76 66.3193 114.412 66.8154 114.206C67.3114 114 67.8573 113.947 68.384 114.051C68.9107 114.156 69.3945 114.415 69.7742 114.794C70.1539 115.174 70.4124 115.658 70.5171 116.184C70.6218 116.711 70.568 117.257 70.3624 117.753C70.1568 118.249 69.8087 118.673 69.3621 118.971C68.9156 119.269 68.3906 119.429 67.8536 119.428C67.1344 119.427 66.4449 119.141 65.9366 118.632C65.4282 118.124 65.1425 117.434 65.1422 116.715H65.1401ZM48.8537 116.715C48.8535 116.178 49.0126 115.653 49.3107 115.206C49.6089 114.76 50.0327 114.412 50.5287 114.206C51.0247 114.001 51.5706 113.947 52.0972 114.051C52.6239 114.156 53.1077 114.414 53.4874 114.794C53.8672 115.173 54.1258 115.657 54.2306 116.184C54.3355 116.71 54.2818 117.256 54.0763 117.752C53.8709 118.248 53.523 118.672 53.0766 118.971C52.6301 119.269 52.1052 119.428 51.5683 119.428C50.8492 119.427 50.1599 119.141 49.6516 118.632C49.1433 118.123 48.8575 117.434 48.8569 116.715H48.8537ZM32.5674 116.715C32.5672 116.178 32.7262 115.653 33.0243 115.206C33.3225 114.76 33.7464 114.412 34.2424 114.206C34.7384 114.001 35.2842 113.947 35.8109 114.051C36.3375 114.156 36.8213 114.414 37.2011 114.794C37.5808 115.173 37.8394 115.657 37.9443 116.184C38.0491 116.71 37.9954 117.256 37.79 117.752C37.5846 118.248 37.2366 118.672 36.7902 118.971C36.3438 119.269 35.8189 119.428 35.2819 119.428C34.5628 119.427 33.8735 119.141 33.3652 118.632C32.8569 118.123 32.5712 117.434 32.5706 116.715H32.5674ZM16.2821 116.715C16.2819 116.178 16.4409 115.653 16.7391 115.206C17.0373 114.76 17.4613 114.412 17.9573 114.206C18.4534 114 18.9993 113.947 19.526 114.051C20.0527 114.156 20.5364 114.415 20.9161 114.794C21.2958 115.174 21.5544 115.658 21.6591 116.184C21.7638 116.711 21.71 117.257 21.5044 117.753C21.2988 118.249 20.9507 118.673 20.5041 118.971C20.0575 119.269 19.5326 119.429 18.9956 119.428C18.2767 119.427 17.5878 119.14 17.0799 118.632C16.572 118.123 16.2866 117.434 16.2864 116.715H16.2821ZM8.44586e-07 116.715C-0.000210858 116.178 0.158843 115.653 0.457043 115.206C0.755242 114.76 1.17919 114.412 1.67526 114.206C2.17132 114 2.71722 113.947 3.2439 114.051C3.77057 114.156 4.25436 114.415 4.63407 114.794C5.01377 115.174 5.27233 115.658 5.37704 116.184C5.48175 116.711 5.4279 117.257 5.22231 117.753C5.01671 118.249 4.66861 118.673 4.22204 118.971C3.77547 119.269 3.25049 119.429 2.7135 119.428C1.99392 119.428 1.3039 119.142 0.79508 118.633C0.286262 118.124 0.000284534 117.434 8.44586e-07 116.715ZM146.571 100.428C146.571 99.8915 146.73 99.3665 147.028 98.9199C147.326 98.4734 147.75 98.1253 148.246 97.9197C148.742 97.7141 149.288 97.6602 149.815 97.7649C150.341 97.8696 150.825 98.1282 151.205 98.5079C151.585 98.8876 151.843 99.3714 151.948 99.8981C152.053 100.425 151.999 100.971 151.793 101.467C151.588 101.963 151.239 102.387 150.793 102.685C150.346 102.983 149.821 103.142 149.284 103.142C148.565 103.142 147.875 102.856 147.366 102.347C146.857 101.838 146.571 101.148 146.571 100.428ZM130.284 100.428C130.284 99.8915 130.443 99.3665 130.742 98.9199C131.04 98.4734 131.464 98.1253 131.96 97.9197C132.456 97.7141 133.002 97.6602 133.528 97.7649C134.055 97.8696 134.539 98.1282 134.919 98.5079C135.298 98.8876 135.557 99.3714 135.662 99.8981C135.766 100.425 135.712 100.971 135.507 101.467C135.301 101.963 134.953 102.387 134.507 102.685C134.06 102.983 133.535 103.142 132.998 103.142C132.278 103.142 131.588 102.856 131.08 102.347C130.571 101.838 130.285 101.148 130.284 100.428ZM113.998 100.428C113.998 99.8915 114.157 99.3666 114.455 98.92C114.753 98.4735 115.177 98.1254 115.673 97.9198C116.169 97.7141 116.715 97.6602 117.242 97.7648C117.768 97.8695 118.252 98.1279 118.632 98.5075C119.012 98.8871 119.27 99.3708 119.375 99.8974C119.48 100.424 119.426 100.97 119.221 101.466C119.015 101.962 118.667 102.386 118.221 102.684C117.775 102.983 117.25 103.142 116.713 103.142C115.993 103.141 115.303 102.855 114.795 102.347C114.286 101.838 114 101.148 113.999 100.428H113.998ZM97.7118 100.428C97.7115 99.8915 97.8706 99.3666 98.1687 98.92C98.4669 98.4735 98.8908 98.1254 99.3868 97.9198C99.8828 97.7141 100.429 97.6602 100.955 97.7648C101.482 97.8695 101.966 98.1279 102.345 98.5075C102.725 98.8871 102.984 99.3708 103.089 99.8974C103.193 100.424 103.14 100.97 102.934 101.466C102.729 101.962 102.381 102.386 101.935 102.684C101.488 102.983 100.963 103.142 100.426 103.142C99.7068 103.141 99.017 102.855 98.5082 102.347C97.9995 101.838 97.7134 101.148 97.7128 100.428H97.7118ZM81.4265 100.428C81.4262 99.8915 81.5853 99.3665 81.8835 98.9199C82.1817 98.4734 82.6057 98.1253 83.1017 97.9197C83.5978 97.7141 84.1437 97.6602 84.6704 97.7649C85.197 97.8696 85.6808 98.1282 86.0605 98.5079C86.4402 98.8876 86.6988 99.3714 86.8035 99.8981C86.9082 100.425 86.8544 100.971 86.6488 101.467C86.4432 101.963 86.0951 102.387 85.6485 102.685C85.2019 102.983 84.6769 103.142 84.14 103.142C83.4208 103.141 82.7313 102.855 82.2229 102.346C81.7146 101.837 81.4289 101.148 81.4286 100.428H81.4265ZM65.1401 100.428C65.1399 99.8915 65.2989 99.3665 65.5971 98.9199C65.8953 98.4734 66.3193 98.1253 66.8154 97.9197C67.3114 97.7141 67.8573 97.6602 68.384 97.7649C68.9107 97.8696 69.3945 98.1282 69.7742 98.5079C70.1539 98.8876 70.4124 99.3714 70.5171 99.8981C70.6218 100.425 70.568 100.971 70.3624 101.467C70.1568 101.963 69.8087 102.387 69.3621 102.685C68.9156 102.983 68.3906 103.142 67.8536 103.142C67.1344 103.141 66.4449 102.855 65.9366 102.346C65.4282 101.837 65.1425 101.148 65.1422 100.428H65.1401ZM48.8537 100.428C48.8535 99.8915 49.0126 99.3666 49.3107 98.92C49.6089 98.4735 50.0327 98.1254 50.5287 97.9198C51.0247 97.7141 51.5706 97.6602 52.0972 97.7648C52.6239 97.8695 53.1077 98.1279 53.4874 98.5075C53.8672 98.8871 54.1258 99.3708 54.2306 99.8974C54.3355 100.424 54.2818 100.97 54.0763 101.466C53.8709 101.962 53.523 102.386 53.0766 102.684C52.6301 102.983 52.1052 103.142 51.5683 103.142C50.8492 103.141 50.1599 102.855 49.6516 102.346C49.1433 101.837 48.8575 101.148 48.8569 100.428H48.8537ZM32.5674 100.428C32.5672 99.8915 32.7262 99.3666 33.0243 98.92C33.3225 98.4735 33.7464 98.1254 34.2424 97.9198C34.7384 97.7141 35.2842 97.6602 35.8109 97.7648C36.3375 97.8695 36.8213 98.1279 37.2011 98.5075C37.5808 98.8871 37.8394 99.3708 37.9443 99.8974C38.0491 100.424 37.9954 100.97 37.79 101.466C37.5846 101.962 37.2366 102.386 36.7902 102.684C36.3438 102.983 35.8189 103.142 35.2819 103.142C34.5628 103.141 33.8735 102.855 33.3652 102.346C32.8569 101.837 32.5712 101.148 32.5706 100.428H32.5674ZM16.2821 100.428C16.2819 99.8915 16.4409 99.3665 16.7391 98.9199C17.0373 98.4734 17.4613 98.1253 17.9573 97.9197C18.4534 97.7141 18.9993 97.6602 19.526 97.7649C20.0527 97.8696 20.5364 98.1282 20.9161 98.5079C21.2958 98.8876 21.5544 99.3714 21.6591 99.8981C21.7638 100.425 21.71 100.971 21.5044 101.467C21.2988 101.963 20.9507 102.387 20.5041 102.685C20.0575 102.983 19.5326 103.142 18.9956 103.142C18.2767 103.141 17.5878 102.854 17.0799 102.345C16.572 101.837 16.2866 101.147 16.2864 100.428H16.2821ZM8.44586e-07 100.428C-0.000210858 99.8915 0.158843 99.3665 0.457043 98.9199C0.755242 98.4734 1.17919 98.1253 1.67526 97.9197C2.17132 97.7141 2.71722 97.6602 3.2439 97.7649C3.77057 97.8696 4.25436 98.1282 4.63407 98.5079C5.01377 98.8876 5.27233 99.3714 5.37704 99.8981C5.48175 100.425 5.4279 100.971 5.22231 101.467C5.01671 101.963 4.66861 102.387 4.22204 102.685C3.77547 102.983 3.25049 103.142 2.7135 103.142C1.99392 103.142 1.3039 102.856 0.79508 102.347C0.286262 101.838 0.000284534 101.148 8.44586e-07 100.428ZM146.571 84.1432C146.571 83.6062 146.73 83.0814 147.028 82.6349C147.327 82.1885 147.751 81.8406 148.247 81.6351C148.743 81.4297 149.289 81.376 149.815 81.4808C150.342 81.5857 150.826 81.8443 151.205 82.2241C151.585 82.6038 151.843 83.0876 151.948 83.6142C152.053 84.1409 151.999 84.6867 151.793 85.1827C151.587 85.6787 151.239 86.1026 150.793 86.4008C150.346 86.6989 149.821 86.858 149.284 86.8577C148.928 86.8577 148.575 86.7875 148.246 86.6511C147.916 86.5147 147.617 86.3147 147.365 86.0626C147.113 85.8105 146.913 85.5113 146.777 85.1819C146.641 84.8526 146.571 84.4996 146.571 84.1432ZM130.284 84.1432C130.284 83.6062 130.444 83.0814 130.742 82.6349C131.04 82.1885 131.464 81.8406 131.96 81.6351C132.457 81.4297 133.002 81.376 133.529 81.4808C134.056 81.5857 134.539 81.8443 134.919 82.2241C135.299 82.6038 135.557 83.0876 135.662 83.6142C135.766 84.1409 135.712 84.6867 135.507 85.1827C135.301 85.6787 134.953 86.1026 134.506 86.4008C134.06 86.6989 133.535 86.858 132.998 86.8577C132.642 86.8577 132.289 86.7875 131.959 86.6511C131.63 86.5147 131.331 86.3147 131.079 86.0626C130.827 85.8105 130.627 85.5113 130.491 85.1819C130.354 84.8526 130.284 84.4996 130.284 84.1432ZM113.998 84.1432C113.998 83.6063 114.157 83.0815 114.456 82.635C114.754 82.1886 115.178 81.8407 115.674 81.6352C116.17 81.4298 116.716 81.376 117.242 81.4808C117.769 81.5855 118.253 81.844 118.632 82.2237C119.012 82.6033 119.27 83.087 119.375 83.6136C119.48 84.1402 119.426 84.686 119.221 85.182C119.015 85.678 118.667 86.102 118.221 86.4003C117.774 86.6985 117.25 86.8577 116.713 86.8577C115.993 86.8575 115.303 86.5713 114.794 86.0623C114.285 85.5532 113.999 84.8629 113.999 84.1432H113.998ZM97.7118 84.1432C97.7118 83.6063 97.871 83.0815 98.1692 82.635C98.4675 82.1886 98.8915 81.8407 99.3875 81.6352C99.8835 81.4298 100.429 81.376 100.956 81.4808C101.482 81.5855 101.966 81.844 102.346 82.2237C102.725 82.6033 102.984 83.087 103.089 83.6136C103.193 84.1402 103.14 84.686 102.934 85.182C102.729 85.678 102.381 86.102 101.934 86.4003C101.488 86.6985 100.963 86.8577 100.426 86.8577C99.7066 86.8575 99.0164 86.5713 98.5075 86.0623C97.9987 85.5532 97.7128 84.8629 97.7128 84.1432H97.7118ZM81.4265 84.1432C81.4265 83.6062 81.5857 83.0814 81.884 82.6349C82.1824 82.1885 82.6064 81.8406 83.1025 81.6351C83.5985 81.4297 84.1444 81.376 84.671 81.4808C85.1976 81.5857 85.6813 81.8443 86.0609 82.2241C86.4405 82.6038 86.699 83.0876 86.8036 83.6142C86.9082 84.1409 86.8543 84.6867 86.6487 85.1827C86.443 85.6787 86.0949 86.1026 85.6484 86.4008C85.2018 86.6989 84.6769 86.858 84.14 86.8577C83.4205 86.8572 82.7307 86.5709 82.2222 86.0618C81.7138 85.5528 81.4283 84.8627 81.4286 84.1432H81.4265ZM65.1401 84.1432C65.1401 83.6062 65.2993 83.0814 65.5977 82.6349C65.896 82.1885 66.32 81.8406 66.8161 81.6351C67.3122 81.4297 67.858 81.376 68.3847 81.4808C68.9113 81.5857 69.3949 81.8443 69.7745 82.2241C70.1541 82.6038 70.4126 83.0876 70.5172 83.6142C70.6218 84.1409 70.5679 84.6867 70.3623 85.1827C70.1567 85.6787 69.8086 86.1026 69.362 86.4008C68.9155 86.6989 68.3905 86.858 67.8536 86.8577C67.1341 86.8572 66.4443 86.5709 65.9359 86.0618C65.4274 85.5528 65.142 84.8627 65.1422 84.1432H65.1401ZM48.8537 84.1432C48.8537 83.6063 49.0129 83.0815 49.3112 82.635C49.6095 82.1886 50.0335 81.8407 50.5295 81.6352C51.0255 81.4298 51.5713 81.376 52.0979 81.4808C52.6245 81.5855 53.1082 81.844 53.4878 82.2237C53.8674 82.6033 54.126 83.087 54.2307 83.6136C54.3355 84.1402 54.2817 84.686 54.0762 85.182C53.8708 85.678 53.5229 86.102 53.0764 86.4003C52.63 86.6985 52.1052 86.8577 51.5683 86.8577C50.8489 86.8569 50.1593 86.5705 49.6509 86.0615C49.1425 85.5525 48.8569 84.8626 48.8569 84.1432H48.8537ZM32.5674 84.1432C32.5674 83.6063 32.7266 83.0815 33.0249 82.635C33.3231 82.1886 33.7471 81.8407 34.2431 81.6352C34.7391 81.4298 35.285 81.376 35.8115 81.4808C36.3381 81.5855 36.8218 81.844 37.2014 82.2237C37.5811 82.6033 37.8396 83.087 37.9444 83.6136C38.0491 84.1402 37.9953 84.686 37.7899 85.182C37.5844 85.678 37.2365 86.102 36.7901 86.4003C36.3437 86.6985 35.8188 86.8577 35.2819 86.8577C34.5625 86.8569 33.8729 86.5705 33.3645 86.0615C32.8561 85.5525 32.5706 84.8626 32.5706 84.1432H32.5674ZM16.2821 84.1432C16.2821 83.6062 16.4413 83.0814 16.7396 82.6349C17.038 82.1885 17.462 81.8406 17.9581 81.6351C18.4542 81.4297 19 81.376 19.5266 81.4808C20.0532 81.5857 20.5369 81.8443 20.9165 82.2241C21.2961 82.6038 21.5546 83.0876 21.6592 83.6142C21.7638 84.1409 21.7099 84.6867 21.5043 85.1827C21.2987 85.6787 20.9506 86.1026 20.504 86.4008C20.0575 86.6989 19.5325 86.858 18.9956 86.8577C18.2765 86.8566 17.5872 86.5701 17.0792 86.0611C16.5713 85.5521 16.2861 84.8623 16.2864 84.1432H16.2821ZM8.44586e-07 84.1432C8.8633e-07 83.6062 0.159235 83.0814 0.457563 82.6349C0.755892 82.1885 1.17991 81.8406 1.676 81.6351C2.17208 81.4297 2.71795 81.376 3.24455 81.4808C3.77116 81.5857 4.25485 81.8443 4.63444 82.2241C5.01404 82.6038 5.27249 83.0876 5.37712 83.6142C5.48174 84.1409 5.42783 84.6867 5.2222 85.1827C5.01658 85.6787 4.66848 86.1026 4.22193 86.4008C3.77538 86.6989 3.25044 86.858 2.7135 86.8577C2.35707 86.8577 2.00413 86.7875 1.67484 86.6511C1.34556 86.5147 1.04637 86.3147 0.794389 86.0626C0.542403 85.8105 0.34255 85.5113 0.206247 85.1819C0.0699433 84.8526 -0.00013976 84.4996 8.44586e-07 84.1432ZM146.571 67.8568C146.571 67.3199 146.73 66.795 147.028 66.3486C147.327 65.9021 147.751 65.5542 148.247 65.3488C148.743 65.1433 149.289 65.0896 149.815 65.1945C150.342 65.2993 150.826 65.558 151.205 65.9377C151.585 66.3174 151.843 66.8012 151.948 67.3279C152.053 67.8545 151.999 68.4004 151.793 68.8964C151.587 69.3924 151.239 69.8163 150.793 70.1144C150.346 70.4126 149.821 70.5716 149.284 70.5714C148.928 70.5714 148.575 70.5012 148.246 70.3647C147.916 70.2283 147.617 70.0283 147.365 69.7762C147.113 69.5242 146.913 69.2249 146.777 68.8956C146.641 68.5662 146.571 68.2132 146.571 67.8568ZM130.284 67.8568C130.284 67.3199 130.444 66.795 130.742 66.3486C131.04 65.9021 131.464 65.5542 131.96 65.3488C132.457 65.1433 133.002 65.0896 133.529 65.1945C134.056 65.2993 134.539 65.558 134.919 65.9377C135.299 66.3174 135.557 66.8012 135.662 67.3279C135.766 67.8545 135.712 68.4004 135.507 68.8964C135.301 69.3924 134.953 69.8163 134.506 70.1144C134.06 70.4126 133.535 70.5716 132.998 70.5714C132.642 70.5714 132.289 70.5012 131.959 70.3647C131.63 70.2283 131.331 70.0283 131.079 69.7762C130.827 69.5242 130.627 69.2249 130.491 68.8956C130.354 68.5662 130.284 68.2132 130.284 67.8568ZM113.998 67.8568C113.998 67.3199 114.157 66.7951 114.456 66.3487C114.754 65.9023 115.178 65.5543 115.674 65.3489C116.17 65.1434 116.716 65.0897 117.242 65.1944C117.769 65.2991 118.253 65.5577 118.632 65.9373C119.012 66.317 119.27 66.8007 119.375 67.3272C119.48 67.8538 119.426 68.3996 119.221 68.8956C119.015 69.3917 118.667 69.8156 118.221 70.1139C117.774 70.4122 117.25 70.5714 116.713 70.5714C115.993 70.5711 115.303 70.285 114.794 69.7759C114.285 69.2669 113.999 68.5766 113.999 67.8568H113.998ZM97.7118 67.8568C97.7118 67.3199 97.871 66.7951 98.1692 66.3487C98.4675 65.9023 98.8915 65.5543 99.3875 65.3489C99.8835 65.1434 100.429 65.0897 100.956 65.1944C101.482 65.2991 101.966 65.5577 102.346 65.9373C102.725 66.317 102.984 66.8007 103.089 67.3272C103.193 67.8538 103.14 68.3996 102.934 68.8956C102.729 69.3917 102.381 69.8156 101.934 70.1139C101.488 70.4122 100.963 70.5714 100.426 70.5714C99.7066 70.5711 99.0164 70.285 98.5075 69.7759C97.9987 69.2669 97.7128 68.5766 97.7128 67.8568H97.7118ZM81.4265 67.8568C81.4265 67.3199 81.5857 66.795 81.884 66.3486C82.1824 65.9021 82.6064 65.5542 83.1025 65.3488C83.5985 65.1433 84.1444 65.0896 84.671 65.1945C85.1976 65.2993 85.6813 65.558 86.0609 65.9377C86.4405 66.3174 86.699 66.8012 86.8036 67.3279C86.9082 67.8545 86.8543 68.4004 86.6487 68.8964C86.443 69.3924 86.0949 69.8163 85.6484 70.1144C85.2018 70.4126 84.6769 70.5716 84.14 70.5714C83.4205 70.5708 82.7307 70.2845 82.2222 69.7755C81.7138 69.2664 81.4283 68.5763 81.4286 67.8568H81.4265ZM65.1401 67.8568C65.1401 67.3199 65.2993 66.795 65.5977 66.3486C65.896 65.9021 66.32 65.5542 66.8161 65.3488C67.3122 65.1433 67.858 65.0896 68.3847 65.1945C68.9113 65.2993 69.3949 65.558 69.7745 65.9377C70.1541 66.3174 70.4126 66.8012 70.5172 67.3279C70.6218 67.8545 70.5679 68.4004 70.3623 68.8964C70.1567 69.3924 69.8086 69.8163 69.362 70.1144C68.9155 70.4126 68.3905 70.5716 67.8536 70.5714C67.1341 70.5708 66.4443 70.2845 65.9359 69.7755C65.4274 69.2664 65.142 68.5763 65.1422 67.8568H65.1401ZM48.8537 67.8568C48.8537 67.3199 49.0129 66.7951 49.3112 66.3487C49.6095 65.9023 50.0335 65.5543 50.5295 65.3489C51.0255 65.1434 51.5713 65.0897 52.0979 65.1944C52.6245 65.2991 53.1082 65.5577 53.4878 65.9373C53.8674 66.317 54.126 66.8007 54.2307 67.3272C54.3355 67.8538 54.2817 68.3996 54.0762 68.8956C53.8708 69.3917 53.5229 69.8156 53.0764 70.1139C52.63 70.4122 52.1052 70.5714 51.5683 70.5714C50.8489 70.5705 50.1593 70.2842 49.6509 69.7752C49.1425 69.2662 48.8569 68.5762 48.8569 67.8568H48.8537ZM32.5674 67.8568C32.5674 67.3199 32.7266 66.7951 33.0249 66.3487C33.3231 65.9023 33.7471 65.5543 34.2431 65.3489C34.7391 65.1434 35.285 65.0897 35.8115 65.1944C36.3381 65.2991 36.8218 65.5577 37.2014 65.9373C37.5811 66.317 37.8396 66.8007 37.9444 67.3272C38.0491 67.8538 37.9953 68.3996 37.7899 68.8956C37.5844 69.3917 37.2365 69.8156 36.7901 70.1139C36.3437 70.4122 35.8188 70.5714 35.2819 70.5714C34.5625 70.5705 33.8729 70.2842 33.3645 69.7752C32.8561 69.2662 32.5706 68.5762 32.5706 67.8568H32.5674ZM16.2821 67.8568C16.2821 67.3199 16.4413 66.795 16.7396 66.3486C17.038 65.9021 17.462 65.5542 17.9581 65.3488C18.4542 65.1433 19 65.0896 19.5266 65.1945C20.0532 65.2993 20.5369 65.558 20.9165 65.9377C21.2961 66.3174 21.5546 66.8012 21.6592 67.3279C21.7638 67.8545 21.7099 68.4004 21.5043 68.8964C21.2987 69.3924 20.9506 69.8163 20.504 70.1144C20.0575 70.4126 19.5325 70.5716 18.9956 70.5714C18.2765 70.5703 17.5872 70.2837 17.0792 69.7747C16.5713 69.2657 16.2861 68.5759 16.2864 67.8568H16.2821ZM8.44586e-07 67.8568C8.8633e-07 67.3199 0.159235 66.795 0.457563 66.3486C0.755892 65.9021 1.17991 65.5542 1.676 65.3488C2.17208 65.1433 2.71795 65.0896 3.24455 65.1945C3.77116 65.2993 4.25485 65.558 4.63444 65.9377C5.01404 66.3174 5.27249 66.8012 5.37712 67.3279C5.48174 67.8545 5.42783 68.4004 5.2222 68.8964C5.01658 69.3924 4.66848 69.8163 4.22193 70.1144C3.77538 70.4126 3.25044 70.5716 2.7135 70.5714C2.35707 70.5714 2.00413 70.5012 1.67484 70.3647C1.34556 70.2283 1.04637 70.0283 0.794389 69.7762C0.542403 69.5242 0.34255 69.2249 0.206247 68.8956C0.0699433 68.5662 -0.00013976 68.2132 8.44586e-07 67.8568ZM146.571 51.5726C146.571 51.0356 146.73 50.5106 147.028 50.0641C147.326 49.6175 147.75 49.2694 148.246 49.0638C148.742 48.8582 149.288 48.8043 149.815 48.9091C150.341 49.0138 150.825 49.2723 151.205 49.652C151.585 50.0317 151.843 50.5155 151.948 51.0422C152.053 51.5689 151.999 52.1148 151.793 52.6108C151.588 53.1069 151.239 53.5309 150.793 53.8291C150.346 54.1273 149.821 54.2863 149.284 54.2861C148.565 54.2858 147.875 53.9998 147.366 53.491C146.857 52.9822 146.571 52.2922 146.571 51.5726ZM130.284 51.5726C130.284 51.0356 130.443 50.5106 130.742 50.0641C131.04 49.6175 131.464 49.2694 131.96 49.0638C132.456 48.8582 133.002 48.8043 133.528 48.9091C134.055 49.0138 134.539 49.2723 134.919 49.652C135.298 50.0317 135.557 50.5155 135.662 51.0422C135.766 51.5689 135.712 52.1148 135.507 52.6108C135.301 53.1069 134.953 53.5309 134.507 53.8291C134.06 54.1273 133.535 54.2863 132.998 54.2861C132.278 54.2858 131.588 53.9998 131.08 53.491C130.571 52.9822 130.285 52.2922 130.284 51.5726ZM113.998 51.5726C113.998 51.0357 114.157 50.5107 114.455 50.0642C114.753 49.6176 115.177 49.2695 115.673 49.0639C116.169 48.8583 116.715 48.8044 117.242 48.909C117.768 49.0136 118.252 49.272 118.632 49.6516C119.012 50.0312 119.27 50.5149 119.375 51.0415C119.48 51.5681 119.426 52.114 119.221 52.6101C119.015 53.1062 118.667 53.5302 118.221 53.8285C117.775 54.1269 117.25 54.2861 116.713 54.2861C115.993 54.2855 115.303 53.9995 114.795 53.4907C114.286 52.9819 114 52.2921 113.999 51.5726H113.998ZM97.7118 51.5726C97.7115 51.0357 97.8706 50.5107 98.1687 50.0642C98.4669 49.6176 98.8908 49.2695 99.3868 49.0639C99.8828 48.8583 100.429 48.8044 100.955 48.909C101.482 49.0136 101.966 49.272 102.345 49.6516C102.725 50.0312 102.984 50.5149 103.089 51.0415C103.193 51.5681 103.14 52.114 102.934 52.6101C102.729 53.1062 102.381 53.5302 101.935 53.8285C101.488 54.1269 100.963 54.2861 100.426 54.2861C99.7068 54.2855 99.017 53.9995 98.5082 53.4907C97.9995 52.9819 97.7134 52.2921 97.7128 51.5726H97.7118ZM81.4265 51.5726C81.4262 51.0356 81.5853 50.5106 81.8835 50.0641C82.1817 49.6175 82.6057 49.2694 83.1017 49.0638C83.5978 48.8582 84.1437 48.8043 84.6704 48.9091C85.197 49.0138 85.6808 49.2723 86.0605 49.652C86.4402 50.0317 86.6988 50.5155 86.8035 51.0422C86.9082 51.5689 86.8544 52.1148 86.6488 52.6108C86.4432 53.1069 86.0951 53.5309 85.6485 53.8291C85.2019 54.1273 84.6769 54.2863 84.14 54.2861C83.4208 54.2852 82.7313 53.999 82.2229 53.4903C81.7146 52.9815 81.4289 52.2918 81.4286 51.5726H81.4265ZM65.1401 51.5726C65.1399 51.0356 65.2989 50.5106 65.5971 50.0641C65.8953 49.6175 66.3193 49.2694 66.8154 49.0638C67.3114 48.8582 67.8573 48.8043 68.384 48.9091C68.9107 49.0138 69.3945 49.2723 69.7742 49.652C70.1539 50.0317 70.4124 50.5155 70.5171 51.0422C70.6218 51.5689 70.568 52.1148 70.3624 52.6108C70.1568 53.1069 69.8087 53.5309 69.3621 53.8291C68.9156 54.1273 68.3906 54.2863 67.8536 54.2861C67.1344 54.2852 66.4449 53.999 65.9366 53.4903C65.4282 52.9815 65.1425 52.2918 65.1422 51.5726H65.1401ZM48.8537 51.5726C48.8535 51.0357 49.0126 50.5107 49.3107 50.0642C49.6089 49.6176 50.0327 49.2695 50.5287 49.0639C51.0247 48.8583 51.5706 48.8044 52.0972 48.909C52.6239 49.0136 53.1077 49.272 53.4874 49.6516C53.8672 50.0312 54.1258 50.5149 54.2306 51.0415C54.3355 51.5681 54.2818 52.114 54.0763 52.6101C53.8709 53.1062 53.523 53.5302 53.0766 53.8285C52.6301 54.1269 52.1052 54.2861 51.5683 54.2861C50.8492 54.285 50.1599 53.9986 49.6516 53.4899C49.1433 52.9812 48.8575 52.2917 48.8569 51.5726H48.8537ZM32.5674 51.5726C32.5672 51.0357 32.7262 50.5107 33.0243 50.0642C33.3225 49.6176 33.7464 49.2695 34.2424 49.0639C34.7384 48.8583 35.2842 48.8044 35.8109 48.909C36.3375 49.0136 36.8213 49.272 37.2011 49.6516C37.5808 50.0312 37.8394 50.5149 37.9443 51.0415C38.0491 51.5681 37.9954 52.114 37.79 52.6101C37.5846 53.1062 37.2366 53.5302 36.7902 53.8285C36.3438 54.1269 35.8189 54.2861 35.2819 54.2861C34.5628 54.285 33.8735 53.9986 33.3652 53.4899C32.8569 52.9812 32.5712 52.2917 32.5706 51.5726H32.5674ZM16.2821 51.5726C16.2819 51.0356 16.4409 50.5106 16.7391 50.0641C17.0373 49.6175 17.4613 49.2694 17.9573 49.0638C18.4534 48.8582 18.9993 48.8043 19.526 48.9091C20.0527 49.0138 20.5364 49.2723 20.9161 49.652C21.2958 50.0317 21.5544 50.5155 21.6591 51.0422C21.7638 51.5689 21.71 52.1148 21.5044 52.6108C21.2988 53.1069 20.9507 53.5309 20.5041 53.8291C20.0575 54.1273 19.5326 54.2863 18.9956 54.2861C18.2767 54.2847 17.5878 53.9982 17.0799 53.4895C16.572 52.9808 16.2866 52.2914 16.2864 51.5726H16.2821ZM8.44586e-07 51.5726C-0.000210858 51.0356 0.158843 50.5106 0.457043 50.0641C0.755242 49.6175 1.17919 49.2694 1.67526 49.0638C2.17132 48.8582 2.71722 48.8043 3.2439 48.9091C3.77057 49.0138 4.25436 49.2723 4.63407 49.652C5.01377 50.0317 5.27233 50.5155 5.37704 51.0422C5.48175 51.5689 5.4279 52.1148 5.22231 52.6108C5.01671 53.1069 4.66861 53.5309 4.22204 53.8291C3.77547 54.1273 3.25049 54.2863 2.7135 54.2861C1.99392 54.2858 1.3039 53.9998 0.79508 53.491C0.286262 52.9822 0.000284534 52.2922 8.44586e-07 51.5726ZM146.571 35.2862C146.571 34.7492 146.73 34.2243 147.028 33.7777C147.326 33.3311 147.75 32.983 148.246 32.7774C148.742 32.5718 149.288 32.518 149.815 32.6227C150.341 32.7274 150.825 32.986 151.205 33.3657C151.585 33.7454 151.843 34.2292 151.948 34.7558C152.053 35.2825 151.999 35.8284 151.793 36.3245C151.588 36.8205 151.239 37.2445 150.793 37.5427C150.346 37.8409 149.821 37.9999 149.284 37.9997C148.565 37.9994 147.875 37.7135 147.366 37.2046C146.857 36.6958 146.571 36.0058 146.571 35.2862ZM130.284 35.2862C130.284 34.7493 130.444 34.2245 130.742 33.7781C131.04 33.3317 131.464 32.9838 131.96 32.7783C132.456 32.5728 133.002 32.5191 133.529 32.6238C134.055 32.7286 134.539 32.9871 134.919 33.3667C135.298 33.7464 135.557 34.2301 135.661 34.7566C135.766 35.2832 135.712 35.829 135.507 36.3251C135.302 36.8211 134.954 37.245 134.507 37.5433C134.061 37.8416 133.536 38.0008 132.999 38.0008C132.279 38.0008 131.589 37.7148 131.08 37.2057C130.57 36.6966 130.284 36.0062 130.284 35.2862ZM113.998 35.2862C113.998 34.7493 114.157 34.2244 114.455 33.7778C114.753 33.3313 115.177 32.9832 115.673 32.7775C116.169 32.5719 116.715 32.518 117.242 32.6226C117.768 32.7272 118.252 32.9857 118.632 33.3653C119.012 33.7449 119.27 34.2286 119.375 34.7552C119.48 35.2818 119.426 35.8276 119.221 36.3237C119.015 36.8198 118.667 37.2438 118.221 37.5422C117.775 37.8405 117.25 37.9997 116.713 37.9997C115.993 37.9992 115.303 37.7131 114.795 37.2043C114.286 36.6956 114 36.0057 113.999 35.2862H113.998ZM97.7118 35.2862C97.7118 34.7494 97.8709 34.2246 98.1692 33.7782C98.4674 33.3318 98.8913 32.9839 99.3873 32.7784C99.8832 32.5729 100.429 32.5191 100.956 32.6237C101.482 32.7284 101.966 32.9868 102.345 33.3664C102.725 33.7459 102.984 34.2295 103.089 34.756C103.193 35.2825 103.14 35.8283 102.935 36.3243C102.729 36.8203 102.382 37.2444 101.935 37.5428C101.489 37.8412 100.964 38.0006 100.427 38.0008C99.7075 38.0005 99.0172 37.7144 98.5082 37.2054C97.9992 36.6964 97.7131 36.0061 97.7128 35.2862H97.7118ZM81.4265 35.2862C81.4265 34.7494 81.5856 34.2246 81.8839 33.7782C82.1821 33.3318 82.606 32.9839 83.102 32.7784C83.5979 32.5729 84.1437 32.5191 84.6702 32.6237C85.1968 32.7284 85.6805 32.9868 86.0602 33.3664C86.4398 33.7459 86.6984 34.2295 86.8033 34.756C86.9082 35.2825 86.8546 35.8283 86.6493 36.3243C86.444 36.8203 86.0962 37.2444 85.6499 37.5428C85.2037 37.8412 84.679 38.0006 84.1421 38.0008C83.4223 38.0005 82.7322 37.7144 82.2233 37.2053C81.7145 36.6963 81.4286 36.006 81.4286 35.2862H81.4265ZM65.1401 35.2862C65.1401 34.7494 65.2993 34.2246 65.5975 33.7782C65.8957 33.3318 66.3196 32.9839 66.8156 32.7784C67.3116 32.5729 67.8573 32.5191 68.3839 32.6237C68.9104 32.7284 69.3941 32.9868 69.7738 33.3664C70.1535 33.7459 70.4121 34.2295 70.517 34.756C70.6218 35.2825 70.5682 35.8283 70.3629 36.3243C70.1576 36.8203 69.8099 37.2444 69.3636 37.5428C68.9173 37.8412 68.3926 38.0006 67.8557 38.0008C67.136 38.0005 66.4458 37.7144 65.9369 37.2053C65.4281 36.6963 65.1422 36.006 65.1422 35.2862H65.1401ZM48.8537 35.2862C48.8537 34.7495 49.0129 34.2248 49.311 33.7784C49.6091 33.3321 50.0329 32.9842 50.5287 32.7786C51.0246 32.573 51.5702 32.5191 52.0967 32.6236C52.6232 32.7281 53.1069 32.9863 53.4867 33.3656C53.8664 33.7449 54.1252 34.2283 54.2303 34.7547C54.3354 35.281 54.2821 35.8267 54.0772 36.3228C53.8722 36.8189 53.5248 37.2431 53.0788 37.5417C52.6328 37.8404 52.1083 38.0002 51.5715 38.0008C50.8517 38.0005 50.1614 37.7144 49.6523 37.2054C49.1433 36.6964 48.8572 36.0061 48.8569 35.2862H48.8537ZM32.5674 35.2862C32.5674 34.7495 32.7265 34.2248 33.0246 33.7784C33.3228 33.3321 33.7465 32.9842 34.2424 32.7786C34.7382 32.573 35.2839 32.5191 35.8104 32.6236C36.3368 32.7281 36.8205 32.9863 37.2003 33.3656C37.5801 33.7449 37.8389 34.2283 37.944 34.7547C38.0491 35.281 37.9958 35.8267 37.7908 36.3228C37.5858 36.8189 37.2384 37.2431 36.7924 37.5417C36.3464 37.8404 35.8219 38.0002 35.2852 38.0008C34.5653 38.0005 33.875 37.7144 33.366 37.2054C32.857 36.6964 32.5709 36.0061 32.5706 35.2862H32.5674ZM16.2821 35.2862C16.2821 34.7495 16.4412 34.2248 16.7393 33.7784C17.0375 33.3321 17.4613 32.9842 17.9571 32.7786C18.4529 32.573 18.9986 32.5191 19.5251 32.6236C20.0515 32.7281 20.5352 32.9863 20.915 33.3656C21.2948 33.7449 21.5536 34.2283 21.6587 34.7547C21.7638 35.281 21.7105 35.8267 21.5055 36.3228C21.3005 36.8189 20.9531 37.2431 20.5071 37.5417C20.0611 37.8404 19.5366 38.0002 18.9999 38.0008C18.2801 38.0005 17.5899 37.7144 17.0811 37.2053C16.5722 36.6963 16.2864 36.006 16.2864 35.2862H16.2821ZM8.44586e-07 35.2862C8.8633e-07 34.7493 0.159235 34.2244 0.457563 33.778C0.755892 33.3316 1.17991 32.9836 1.676 32.7782C2.17208 32.5728 2.71795 32.5191 3.24455 32.6239C3.77116 32.7287 4.25485 32.9874 4.63444 33.3671C5.01404 33.7469 5.27249 34.2307 5.37712 34.7573C5.48174 35.2839 5.42783 35.8298 5.2222 36.3258C5.01658 36.8218 4.66848 37.2457 4.22193 37.5438C3.77538 37.842 3.25044 38.001 2.7135 38.0008C1.99374 38.0005 1.30355 37.7144 0.794702 37.2053C0.285853 36.6963 7.88628e-07 36.006 8.44586e-07 35.2862ZM146.571 19.0009C146.571 18.464 146.73 17.9391 147.028 17.4927C147.327 17.0463 147.751 16.6983 148.247 16.4929C148.743 16.2875 149.289 16.2338 149.815 16.3386C150.342 16.4434 150.826 16.7021 151.205 17.0818C151.585 17.4616 151.843 17.9454 151.948 18.472C152.053 18.9987 151.999 19.5445 151.793 20.0405C151.587 20.5365 151.239 20.9604 150.793 21.2585C150.346 21.5567 149.821 21.7157 149.284 21.7155C148.928 21.7155 148.575 21.6453 148.246 21.5089C147.916 21.3724 147.617 21.1724 147.365 20.9204C147.113 20.6683 146.913 20.369 146.777 20.0397C146.641 19.7103 146.571 19.3574 146.571 19.0009ZM130.284 19.0009C130.284 18.464 130.444 17.9391 130.742 17.4927C131.04 17.0463 131.464 16.6983 131.96 16.4929C132.457 16.2875 133.002 16.2338 133.529 16.3386C134.056 16.4434 134.539 16.7021 134.919 17.0818C135.299 17.4616 135.557 17.9454 135.662 18.472C135.766 18.9987 135.712 19.5445 135.507 20.0405C135.301 20.5365 134.953 20.9604 134.506 21.2585C134.06 21.5567 133.535 21.7157 132.998 21.7155C132.642 21.7155 132.289 21.6453 131.959 21.5089C131.63 21.3724 131.331 21.1724 131.079 20.9204C130.827 20.6683 130.627 20.369 130.491 20.0397C130.354 19.7103 130.284 19.3574 130.284 19.0009ZM113.998 19.0009C113.998 18.464 114.157 17.9392 114.456 17.4928C114.754 17.0464 115.178 16.6985 115.674 16.493C116.17 16.2875 116.716 16.2338 117.242 16.3385C117.769 16.4433 118.253 16.7018 118.632 17.0814C119.012 17.4611 119.27 17.9448 119.375 18.4713C119.48 18.9979 119.426 19.5437 119.221 20.0398C119.015 20.5358 118.667 20.9597 118.221 21.258C117.774 21.5563 117.25 21.7155 116.713 21.7155C115.993 21.7152 115.303 21.4291 114.794 20.9201C114.285 20.411 113.999 19.7207 113.999 19.0009H113.998ZM97.7118 19.0009C97.7118 18.464 97.871 17.9392 98.1692 17.4928C98.4675 17.0464 98.8915 16.6985 99.3875 16.493C99.8835 16.2875 100.429 16.2338 100.956 16.3385C101.482 16.4433 101.966 16.7018 102.346 17.0814C102.725 17.4611 102.984 17.9448 103.089 18.4713C103.193 18.9979 103.14 19.5437 102.934 20.0398C102.729 20.5358 102.381 20.9597 101.934 21.258C101.488 21.5563 100.963 21.7155 100.426 21.7155C99.7066 21.7152 99.0164 21.4291 98.5075 20.9201C97.9987 20.411 97.7128 19.7207 97.7128 19.0009H97.7118ZM81.4265 19.0009C81.4265 18.464 81.5857 17.9391 81.884 17.4927C82.1824 17.0463 82.6064 16.6983 83.1025 16.4929C83.5985 16.2875 84.1444 16.2338 84.671 16.3386C85.1976 16.4434 85.6813 16.7021 86.0609 17.0818C86.4405 17.4616 86.699 17.9454 86.8036 18.472C86.9082 18.9987 86.8543 19.5445 86.6487 20.0405C86.443 20.5365 86.0949 20.9604 85.6484 21.2585C85.2018 21.5567 84.6769 21.7157 84.14 21.7155C83.4205 21.7149 82.7307 21.4287 82.2222 20.9196C81.7138 20.4106 81.4283 19.7204 81.4286 19.0009H81.4265ZM65.1401 19.0009C65.1401 18.464 65.2993 17.9391 65.5977 17.4927C65.896 17.0463 66.32 16.6983 66.8161 16.4929C67.3122 16.2875 67.858 16.2338 68.3847 16.3386C68.9113 16.4434 69.3949 16.7021 69.7745 17.0818C70.1541 17.4616 70.4126 17.9454 70.5172 18.472C70.6218 18.9987 70.5679 19.5445 70.3623 20.0405C70.1567 20.5365 69.8086 20.9604 69.362 21.2585C68.9155 21.5567 68.3905 21.7157 67.8536 21.7155C67.1341 21.7149 66.4443 21.4287 65.9359 20.9196C65.4274 20.4106 65.142 19.7204 65.1422 19.0009H65.1401ZM48.8537 19.0009C48.8537 18.464 49.0129 17.9392 49.3112 17.4928C49.6095 17.0464 50.0335 16.6985 50.5295 16.493C51.0255 16.2875 51.5713 16.2338 52.0979 16.3385C52.6245 16.4433 53.1082 16.7018 53.4878 17.0814C53.8674 17.4611 54.126 17.9448 54.2307 18.4713C54.3355 18.9979 54.2817 19.5437 54.0762 20.0398C53.8708 20.5358 53.5229 20.9597 53.0764 21.258C52.63 21.5563 52.1052 21.7155 51.5683 21.7155C50.8489 21.7147 50.1593 21.4283 49.6509 20.9193C49.1425 20.4103 48.8569 19.7203 48.8569 19.0009H48.8537ZM32.5674 19.0009C32.5674 18.464 32.7266 17.9392 33.0249 17.4928C33.3231 17.0464 33.7471 16.6985 34.2431 16.493C34.7391 16.2875 35.285 16.2338 35.8115 16.3385C36.3381 16.4433 36.8218 16.7018 37.2014 17.0814C37.5811 17.4611 37.8396 17.9448 37.9444 18.4713C38.0491 18.9979 37.9953 19.5437 37.7899 20.0398C37.5844 20.5358 37.2365 20.9597 36.7901 21.258C36.3437 21.5563 35.8188 21.7155 35.2819 21.7155C34.5625 21.7147 33.8729 21.4283 33.3645 20.9193C32.8561 20.4103 32.5706 19.7203 32.5706 19.0009H32.5674ZM16.2821 19.0009C16.2821 18.464 16.4413 17.9391 16.7396 17.4927C17.038 17.0463 17.462 16.6983 17.9581 16.4929C18.4542 16.2875 19 16.2338 19.5266 16.3386C20.0532 16.4434 20.5369 16.7021 20.9165 17.0818C21.2961 17.4616 21.5546 17.9454 21.6592 18.472C21.7638 18.9987 21.7099 19.5445 21.5043 20.0405C21.2987 20.5365 20.9506 20.9604 20.504 21.2585C20.0575 21.5567 19.5325 21.7157 18.9956 21.7155C18.2765 21.7144 17.5872 21.4278 17.0792 20.9189C16.5713 20.4099 16.2861 19.72 16.2864 19.0009H16.2821ZM8.44586e-07 19.0009C8.8633e-07 18.464 0.159235 17.9391 0.457563 17.4927C0.755892 17.0463 1.17991 16.6983 1.676 16.4929C2.17208 16.2875 2.71795 16.2338 3.24455 16.3386C3.77116 16.4434 4.25485 16.7021 4.63444 17.0818C5.01404 17.4616 5.27249 17.9454 5.37712 18.472C5.48174 18.9987 5.42783 19.5445 5.2222 20.0405C5.01658 20.5365 4.66848 20.9604 4.22193 21.2585C3.77538 21.5567 3.25044 21.7157 2.7135 21.7155C2.35707 21.7155 2.00413 21.6453 1.67484 21.5089C1.34556 21.3724 1.04637 21.1724 0.794389 20.9204C0.542403 20.6683 0.34255 20.369 0.206247 20.0397C0.0699433 19.7103 -0.00013976 19.3574 8.44586e-07 19.0009ZM146.571 2.71457C146.571 2.17764 146.73 1.65276 147.028 1.20633C147.327 0.759894 147.751 0.411962 148.247 0.206533C148.743 0.00110543 149.289 -0.0525896 149.815 0.0522395C150.342 0.157069 150.826 0.415713 151.205 0.79546C151.585 1.17521 151.843 1.659 151.948 2.18564C152.053 2.71229 151.999 3.25813 151.793 3.75414C151.587 4.25014 151.239 4.67403 150.793 4.97218C150.346 5.27033 149.821 5.42936 149.284 5.42915C148.928 5.42915 148.575 5.35892 148.246 5.22249C147.916 5.08606 147.617 4.88609 147.365 4.634C147.113 4.38192 146.913 4.08265 146.777 3.75331C146.641 3.42397 146.571 3.07101 146.571 2.71457ZM130.284 2.71457C130.284 2.17764 130.444 1.65276 130.742 1.20633C131.04 0.759894 131.464 0.411962 131.96 0.206533C132.457 0.00110543 133.002 -0.0525896 133.529 0.0522395C134.056 0.157069 134.539 0.415713 134.919 0.79546C135.299 1.17521 135.557 1.659 135.662 2.18564C135.766 2.71229 135.712 3.25813 135.507 3.75414C135.301 4.25014 134.953 4.67403 134.506 4.97218C134.06 5.27033 133.535 5.42936 132.998 5.42915C132.642 5.42915 132.289 5.35892 131.959 5.22249C131.63 5.08606 131.331 4.88609 131.079 4.634C130.827 4.38192 130.627 4.08265 130.491 3.75331C130.354 3.42397 130.284 3.07101 130.284 2.71457ZM113.998 2.71457C113.998 2.17768 114.157 1.65285 114.456 1.20644C114.754 0.760029 115.178 0.412095 115.674 0.206636C116.17 0.00117618 116.716 -0.0525814 117.242 0.052161C117.769 0.156903 118.253 0.415441 118.632 0.795081C119.012 1.17472 119.27 1.65841 119.375 2.18499C119.48 2.71156 119.426 3.25737 119.221 3.7534C119.015 4.24942 118.667 4.67338 118.221 4.97166C117.774 5.26994 117.25 5.42915 116.713 5.42915C115.993 5.42886 115.303 5.14274 114.794 4.63369C114.285 4.12464 113.999 3.43434 113.999 2.71457H113.998ZM97.7118 2.71457C97.7118 2.17768 97.871 1.65285 98.1692 1.20644C98.4675 0.760029 98.8915 0.412095 99.3875 0.206636C99.8835 0.00117618 100.429 -0.0525814 100.956 0.052161C101.482 0.156903 101.966 0.415441 102.346 0.795081C102.725 1.17472 102.984 1.65841 103.089 2.18499C103.193 2.71156 103.14 3.25737 102.934 3.7534C102.729 4.24942 102.381 4.67338 101.934 4.97166C101.488 5.26994 100.963 5.42915 100.426 5.42915C99.7066 5.42886 99.0164 5.14274 98.5075 4.63369C97.9987 4.12464 97.7128 3.43434 97.7128 2.71457H97.7118ZM81.4265 2.71457C81.4265 2.17764 81.5857 1.65276 81.884 1.20633C82.1824 0.759894 82.6064 0.411962 83.1025 0.206533C83.5985 0.00110543 84.1444 -0.0525896 84.671 0.0522395C85.1976 0.157069 85.6813 0.415713 86.0609 0.79546C86.4405 1.17521 86.699 1.659 86.8036 2.18564C86.9082 2.71229 86.8543 3.25813 86.6487 3.75414C86.443 4.25014 86.0949 4.67403 85.6484 4.97218C85.2018 5.27033 84.6769 5.42936 84.14 5.42915C83.4205 5.42858 82.7307 5.14229 82.2222 4.63324C81.7138 4.12419 81.4283 3.43405 81.4286 2.71457H81.4265ZM65.1401 2.71457C65.1401 2.17764 65.2993 1.65276 65.5977 1.20633C65.896 0.759894 66.32 0.411962 66.8161 0.206533C67.3122 0.00110543 67.858 -0.0525896 68.3847 0.0522395C68.9113 0.157069 69.3949 0.415713 69.7745 0.79546C70.1541 1.17521 70.4126 1.659 70.5172 2.18564C70.6218 2.71229 70.5679 3.25813 70.3623 3.75414C70.1567 4.25014 69.8086 4.67403 69.362 4.97218C68.9155 5.27033 68.3905 5.42936 67.8536 5.42915C67.1341 5.42858 66.4443 5.14229 65.9359 4.63324C65.4274 4.12419 65.142 3.43405 65.1422 2.71457H65.1401ZM48.8537 2.71457C48.8537 2.17768 49.0129 1.65285 49.3112 1.20644C49.6095 0.760029 50.0335 0.412095 50.5295 0.206636C51.0255 0.00117618 51.5713 -0.0525814 52.0979 0.052161C52.6245 0.156903 53.1082 0.415441 53.4878 0.795081C53.8674 1.17472 54.126 1.65841 54.2307 2.18499C54.3355 2.71156 54.2817 3.25737 54.0762 3.7534C53.8708 4.24942 53.5229 4.67338 53.0764 4.97166C52.63 5.26994 52.1052 5.42915 51.5683 5.42915C50.8489 5.4283 50.1593 5.14192 49.6509 4.63293C49.1425 4.12394 48.8569 3.43397 48.8569 2.71457H48.8537ZM32.5674 2.71457C32.5674 2.17768 32.7266 1.65285 33.0249 1.20644C33.3231 0.760029 33.7471 0.412095 34.2431 0.206636C34.7391 0.00117618 35.285 -0.0525814 35.8115 0.052161C36.3381 0.156903 36.8218 0.415441 37.2014 0.795081C37.5811 1.17472 37.8396 1.65841 37.9444 2.18499C38.0491 2.71156 37.9953 3.25737 37.7899 3.7534C37.5844 4.24942 37.2365 4.67338 36.7901 4.97166C36.3437 5.26994 35.8188 5.42915 35.2819 5.42915C34.5625 5.4283 33.8729 5.14192 33.3645 4.63293C32.8561 4.12394 32.5706 3.43397 32.5706 2.71457H32.5674ZM16.2821 2.71457C16.2823 2.17786 16.4416 1.65326 16.7399 1.20706C17.0381 0.760865 17.462 0.413097 17.9578 0.207708C18.4537 0.00231803 18.9993 -0.0514741 19.5257 0.0531291C20.0521 0.157732 20.5357 0.416036 20.9154 0.795397C21.295 1.17476 21.5537 1.65815 21.6588 2.18448C21.7638 2.71082 21.7104 3.25647 21.5054 3.75249C21.3004 4.24851 20.953 4.67262 20.507 4.97124C20.0611 5.26986 19.5366 5.42958 18.9999 5.43022C18.6433 5.43022 18.2903 5.35996 17.961 5.22346C17.6316 5.08696 17.3324 4.88689 17.0804 4.63469C16.8284 4.38249 16.6285 4.08311 16.4923 3.75364C16.3561 3.42418 16.2861 3.0711 16.2864 2.71457H16.2821ZM8.44586e-07 2.71457C0.000212594 2.17768 0.159626 1.65291 0.458083 1.20662C0.756541 0.760327 1.18064 0.412561 1.67674 0.207297C2.17284 0.00203298 2.71868 -0.0515094 3.24521 0.0534406C3.77174 0.158391 4.25533 0.417119 4.63482 0.796909C5.01431 1.1767 5.27266 1.66049 5.37719 2.18711C5.48173 2.71372 5.42776 3.25951 5.2221 3.75545C5.01645 4.2514 4.66834 4.67522 4.22182 4.97332C3.77529 5.27143 3.25039 5.43043 2.7135 5.43022C2.35698 5.43022 2.00395 5.35996 1.6746 5.22346C1.34524 5.08696 1.04601 4.88689 0.79401 4.63469C0.54201 4.38249 0.342179 4.08311 0.205939 3.75364C0.0696988 3.42418 -0.000280435 3.0711 8.44586e-07 2.71457Z" fill="#3A36DB" />
</svg>