<svg width="95" height="152" viewBox="0 0 95 152" fill="none" xmlns="http://www.w3.org/2000/svg">
  <path opacity="0.2" d="M89.5708 149.285C89.5708 148.748 89.7301 148.224 90.0284 147.777C90.3267 147.331 90.7508 146.983 91.2468 146.777C91.7429 146.572 92.2888 146.518 92.8154 146.623C93.342 146.728 93.8257 146.987 94.2053 147.366C94.5849 147.746 94.8433 148.23 94.948 148.756C95.0526 149.283 94.9987 149.829 94.793 150.325C94.5874 150.821 94.2393 151.245 93.7928 151.543C93.3462 151.841 92.8213 152 92.2843 152C91.9279 152 91.575 151.93 91.2457 151.793C90.9164 151.657 90.6172 151.457 90.3652 151.205C90.1132 150.953 89.9134 150.653 89.7771 150.324C89.6408 149.995 89.5707 149.642 89.5708 149.285ZM73.2845 149.285C73.2845 148.749 73.4437 148.224 73.742 147.777C74.0403 147.331 74.4642 146.983 74.9602 146.777C75.4563 146.572 76.0021 146.518 76.5286 146.623C77.0552 146.728 77.5389 146.986 77.9185 147.366C78.2982 147.746 78.5567 148.229 78.6615 148.756C78.7662 149.282 78.7124 149.828 78.507 150.324C78.3015 150.82 77.9536 151.244 77.5072 151.542C77.0608 151.841 76.5359 152 75.9991 152C75.6425 152 75.2895 151.93 74.9601 151.794C74.6306 151.657 74.3313 151.457 74.0792 151.205C73.8271 150.953 73.6272 150.654 73.4908 150.324C73.3545 149.995 73.2843 149.642 73.2845 149.285ZM56.9981 149.285C56.9981 148.749 57.1573 148.224 57.4555 147.777C57.7538 147.331 58.1777 146.983 58.6736 146.778C59.1696 146.572 59.7153 146.518 60.2419 146.623C60.7684 146.728 61.2521 146.986 61.6318 147.366C62.0115 147.745 62.2701 148.229 62.375 148.755C62.4798 149.282 62.4262 149.827 62.2209 150.324C62.0156 150.82 61.6679 151.244 61.2216 151.542C60.7753 151.84 60.2506 152 59.7138 152C58.9938 152 58.3033 151.714 57.7943 151.205C57.2852 150.696 56.9992 150.005 56.9992 149.285H56.9981ZM40.7118 149.285C40.7118 148.749 40.8709 148.224 41.1692 147.777C41.4674 147.331 41.8913 146.983 42.3873 146.778C42.8832 146.572 43.429 146.518 43.9555 146.623C44.4821 146.728 44.9658 146.986 45.3454 147.366C45.7251 147.745 45.9837 148.229 46.0886 148.755C46.1935 149.282 46.1399 149.827 45.9346 150.324C45.7293 150.82 45.3815 151.244 44.9352 151.542C44.489 151.84 43.9642 152 43.4274 152C42.7074 152 42.017 151.714 41.5079 151.205C40.9988 150.696 40.7128 150.005 40.7128 149.285H40.7118ZM24.4265 149.285C24.4265 148.749 24.5856 148.224 24.8839 147.777C25.1821 147.331 25.606 146.983 26.102 146.778C26.5979 146.572 27.1437 146.518 27.6702 146.623C28.1968 146.728 28.6805 146.986 29.0602 147.366C29.4398 147.745 29.6984 148.229 29.8033 148.755C29.9082 149.282 29.8546 149.827 29.6493 150.324C29.444 150.82 29.0962 151.244 28.6499 151.542C28.2037 151.84 27.679 152 27.1421 152C26.7857 152 26.4327 151.93 26.1034 151.793C25.7742 151.657 25.475 151.457 25.223 151.205C24.971 150.953 24.7711 150.653 24.6348 150.324C24.4985 149.995 24.4285 149.642 24.4286 149.285H24.4265ZM8.1401 149.285C8.1401 148.749 8.29928 148.224 8.59751 147.777C8.89574 147.331 9.31964 146.983 9.81561 146.778C10.3116 146.572 10.8573 146.518 11.3839 146.623C11.9104 146.728 12.3941 146.986 12.7738 147.366C13.1535 147.745 13.4121 148.229 13.517 148.755C13.6218 149.282 13.5682 149.827 13.3629 150.324C13.1576 150.82 12.8099 151.244 12.3636 151.542C11.9173 151.84 11.3926 152 10.8557 152C10.4993 152 10.1464 151.93 9.81708 151.793C9.48779 151.657 9.18861 151.457 8.93663 151.205C8.68465 150.953 8.48479 150.653 8.34849 150.324C8.21218 149.995 8.1421 149.642 8.14223 149.285H8.1401ZM-8.14626 149.285C-8.14626 148.749 -7.98714 148.224 -7.689 147.778C-7.39086 147.331 -6.96709 146.983 -6.47126 146.778C-5.97542 146.572 -5.42977 146.518 -4.90329 146.623C-4.3768 146.727 -3.8931 146.985 -3.51333 147.365C-3.13357 147.744 -2.87477 148.227 -2.76967 148.754C-2.66457 149.28 -2.71787 149.826 -2.92284 150.322C-3.1278 150.818 -3.47523 151.242 -3.92122 151.541C-4.36721 151.84 -4.89172 151.999 -5.42848 152C-6.14843 152 -6.83889 151.714 -7.34797 151.205C-7.85706 150.696 -8.14305 150.005 -8.14305 149.285H-8.14626ZM-24.4326 149.285C-24.4326 148.749 -24.2735 148.224 -23.9754 147.778C-23.6772 147.331 -23.2535 146.983 -22.7576 146.778C-22.2618 146.572 -21.7161 146.518 -21.1896 146.623C-20.6632 146.727 -20.1795 146.985 -19.7997 147.365C-19.4199 147.744 -19.1611 148.227 -19.056 148.754C-18.9509 149.28 -19.0042 149.826 -19.2092 150.322C-19.4142 150.818 -19.7616 151.242 -20.2076 151.541C-20.6536 151.84 -21.1781 151.999 -21.7148 152C-22.4348 152 -23.1253 151.714 -23.6343 151.205C-24.1434 150.696 -24.4294 150.005 -24.4294 149.285H-24.4326ZM-40.7179 149.285C-40.7179 148.749 -40.5588 148.224 -40.2607 147.778C-39.9625 147.331 -39.5387 146.983 -39.0429 146.778C-38.5471 146.572 -38.0014 146.518 -37.4749 146.623C-36.9485 146.727 -36.4648 146.985 -36.085 147.365C-35.7052 147.744 -35.4464 148.227 -35.3413 148.754C-35.2362 149.28 -35.2895 149.826 -35.4945 150.322C-35.6995 150.818 -36.0469 151.242 -36.4929 151.541C-36.9389 151.84 -37.4634 151.999 -38.0001 152C-38.3566 152 -38.7095 151.93 -39.0388 151.793C-39.3681 151.657 -39.6673 151.457 -39.9192 151.205C-40.1712 150.953 -40.3711 150.653 -40.5074 150.324C-40.6437 149.995 -40.7138 149.642 -40.7136 149.285H-40.7179ZM-57 149.285C-57 148.748 -56.8408 148.224 -56.5424 147.777C-56.2441 147.331 -55.8201 146.983 -55.324 146.777C-54.8279 146.572 -54.2821 146.518 -53.7554 146.623C-53.2288 146.728 -52.7452 146.987 -52.3656 147.366C-51.986 147.746 -51.7275 148.23 -51.6229 148.756C-51.5183 149.283 -51.5722 149.829 -51.7778 150.325C-51.9834 150.821 -52.3315 151.245 -52.7781 151.543C-53.2246 151.841 -53.7496 152 -54.2865 152C-54.6429 152 -54.9959 151.93 -55.3252 151.793C-55.6544 151.657 -55.9536 151.457 -56.2056 151.205C-56.4576 150.953 -56.6575 150.653 -56.7938 150.324C-56.9301 149.995 -57.0001 149.642 -57 149.285ZM89.5708 133C89.5708 132.463 89.7301 131.938 90.0284 131.492C90.3267 131.045 90.7508 130.698 91.2468 130.492C91.7429 130.287 92.2888 130.233 92.8154 130.338C93.342 130.443 93.8257 130.701 94.2053 131.081C94.5849 131.461 94.8433 131.945 94.948 132.471C95.0526 132.998 94.9987 133.544 94.793 134.04C94.5874 134.536 94.2393 134.96 93.7928 135.258C93.3462 135.556 92.8213 135.715 92.2843 135.715C91.9279 135.715 91.575 135.644 91.2457 135.508C90.9164 135.372 90.6172 135.172 90.3652 134.92C90.1132 134.667 89.9134 134.368 89.7771 134.039C89.6408 133.71 89.5707 133.357 89.5708 133ZM73.2845 133C73.2845 132.463 73.4437 131.938 73.7421 131.492C74.0404 131.045 74.4644 130.698 74.9605 130.492C75.4566 130.287 76.0024 130.233 76.529 130.338C77.0556 130.443 77.5393 130.701 77.9189 131.081C78.2985 131.461 78.557 131.945 78.6616 132.471C78.7662 132.998 78.7123 133.544 78.5067 134.04C78.3011 134.536 77.953 134.96 77.5064 135.258C77.0599 135.556 76.5349 135.715 75.998 135.715C75.6416 135.715 75.2886 135.644 74.9593 135.508C74.63 135.372 74.3309 135.172 74.0789 134.92C73.8269 134.667 73.627 134.368 73.4907 134.039C73.3544 133.71 73.2843 133.357 73.2845 133ZM56.9981 133C56.9981 132.463 57.1573 131.938 57.4556 131.492C57.7539 131.046 58.1778 130.698 58.6739 130.492C59.1699 130.287 59.7157 130.233 60.2423 130.338C60.7689 130.442 61.2525 130.701 61.6322 131.081C62.0118 131.46 62.2704 131.944 62.3751 132.471C62.4798 132.997 62.4261 133.543 62.2206 134.039C62.0152 134.535 61.6672 134.959 61.2208 135.257C60.7744 135.555 60.2496 135.715 59.7127 135.715C58.9929 135.714 58.3027 135.428 57.7939 134.919C57.285 134.41 56.9992 133.72 56.9992 133H56.9981ZM40.7118 133C40.7118 132.463 40.871 131.938 41.1692 131.492C41.4675 131.046 41.8915 130.698 42.3875 130.492C42.8835 130.287 43.4293 130.233 43.9559 130.338C44.4825 130.442 44.9662 130.701 45.3458 131.081C45.7255 131.46 45.984 131.944 46.0887 132.471C46.1935 132.997 46.1397 133.543 45.9343 134.039C45.7288 134.535 45.3809 134.959 44.9345 135.257C44.4881 135.555 43.9632 135.715 43.4263 135.715C42.7066 135.714 42.0164 135.428 41.5075 134.919C40.9987 134.41 40.7128 133.72 40.7128 133H40.7118ZM24.4265 133C24.4265 132.463 24.5857 131.938 24.884 131.492C25.1824 131.045 25.6064 130.698 26.1025 130.492C26.5985 130.287 27.1444 130.233 27.671 130.338C28.1976 130.443 28.6813 130.701 29.0609 131.081C29.4405 131.461 29.699 131.945 29.8036 132.471C29.9082 132.998 29.8543 133.544 29.6487 134.04C29.443 134.536 29.0949 134.96 28.6484 135.258C28.2018 135.556 27.6769 135.715 27.14 135.715C26.4205 135.714 25.7307 135.428 25.2222 134.919C24.7138 134.41 24.4283 133.72 24.4286 133H24.4265ZM8.1401 133C8.1401 132.463 8.29933 131.938 8.59766 131.492C8.89599 131.045 9.32001 130.698 9.81609 130.492C10.3122 130.287 10.858 130.233 11.3847 130.338C11.9113 130.443 12.3949 130.701 12.7745 131.081C13.1541 131.461 13.4126 131.945 13.5172 132.471C13.6218 132.998 13.5679 133.544 13.3623 134.04C13.1567 134.536 12.8086 134.96 12.362 135.258C11.9155 135.556 11.3905 135.715 10.8536 135.715C10.1341 135.714 9.44432 135.428 8.93587 134.919C8.42742 134.41 8.14195 133.72 8.14223 133H8.1401ZM-8.14626 133C-8.14626 132.463 -7.98706 131.938 -7.68877 131.492C-7.3905 131.046 -6.96654 130.698 -6.47052 130.492C-5.97449 130.287 -5.42868 130.233 -4.9021 130.338C-4.37553 130.442 -3.89184 130.701 -3.5122 131.081C-3.13256 131.46 -2.87402 131.944 -2.76928 132.471C-2.66454 132.997 -2.71829 133.543 -2.92375 134.039C-3.12921 134.535 -3.47715 134.959 -3.92356 135.257C-4.36996 135.555 -4.8948 135.715 -5.43169 135.715C-6.15108 135.714 -6.84072 135.427 -7.34911 134.918C-7.85749 134.409 -8.14305 133.72 -8.14305 133H-8.14626ZM-24.4326 133C-24.4326 132.463 -24.2734 131.938 -23.9751 131.492C-23.6769 131.046 -23.2529 130.698 -22.7569 130.492C-22.2609 130.287 -21.715 130.233 -21.1885 130.338C-20.6619 130.442 -20.1782 130.701 -19.7986 131.081C-19.4189 131.46 -19.1604 131.944 -19.0556 132.471C-18.9509 132.997 -19.0047 133.543 -19.2101 134.039C-19.4156 134.535 -19.7635 134.959 -20.2099 135.257C-20.6563 135.555 -21.1812 135.715 -21.7181 135.715C-22.4375 135.714 -23.1271 135.427 -23.6355 134.918C-24.1439 134.409 -24.4294 133.72 -24.4294 133H-24.4326ZM-40.7179 133C-40.7179 132.463 -40.5587 131.938 -40.2604 131.492C-39.962 131.045 -39.538 130.698 -39.0419 130.492C-38.5458 130.287 -38 130.233 -37.4734 130.338C-36.9468 130.443 -36.4631 130.701 -36.0835 131.081C-35.7039 131.461 -35.4454 131.945 -35.3408 132.471C-35.2362 132.998 -35.2901 133.544 -35.4957 134.04C-35.7013 134.536 -36.0494 134.96 -36.496 135.258C-36.9425 135.556 -37.4675 135.715 -38.0044 135.715C-38.7235 135.714 -39.4128 135.427 -39.9208 134.918C-40.4287 134.409 -40.7139 133.719 -40.7136 133H-40.7179ZM-57 133C-57 132.463 -56.8408 131.938 -56.5424 131.492C-56.2441 131.045 -55.8201 130.698 -55.324 130.492C-54.8279 130.287 -54.2821 130.233 -53.7554 130.338C-53.2288 130.443 -52.7452 130.701 -52.3656 131.081C-51.986 131.461 -51.7275 131.945 -51.6229 132.471C-51.5183 132.998 -51.5722 133.544 -51.7778 134.04C-51.9834 134.536 -52.3315 134.96 -52.7781 135.258C-53.2246 135.556 -53.7496 135.715 -54.2865 135.715C-54.6429 135.715 -54.9959 135.644 -55.3252 135.508C-55.6544 135.372 -55.9536 135.172 -56.2056 134.92C-56.4576 134.667 -56.6575 134.368 -56.7938 134.039C-56.9301 133.71 -57.0001 133.357 -57 133ZM89.5708 116.715C89.5706 116.178 89.7297 115.653 90.0279 115.206C90.3261 114.76 90.75 114.412 91.2461 114.206C91.7422 114 92.2881 113.947 92.8147 114.051C93.3414 114.156 93.8252 114.415 94.2049 114.794C94.5846 115.174 94.8432 115.658 94.9479 116.184C95.0526 116.711 94.9987 117.257 94.7932 117.753C94.5876 118.249 94.2395 118.673 93.7929 118.971C93.3463 119.269 92.8213 119.429 92.2843 119.428C91.5648 119.428 90.8747 119.142 90.3659 118.633C89.8571 118.124 89.5711 117.434 89.5708 116.715ZM73.2845 116.715C73.2843 116.178 73.4433 115.653 73.7415 115.206C74.0397 114.76 74.4637 114.412 74.9597 114.206C75.4558 114 76.0017 113.947 76.5284 114.051C77.0551 114.156 77.5388 114.415 77.9185 114.794C78.2982 115.174 78.5568 115.658 78.6615 116.184C78.7662 116.711 78.7124 117.257 78.5068 117.753C78.3012 118.249 77.9531 118.673 77.5065 118.971C77.06 119.269 76.535 119.429 75.998 119.428C75.2784 119.428 74.5884 119.142 74.0796 118.633C73.5707 118.124 73.2848 117.434 73.2845 116.715ZM56.9981 116.715C56.9979 116.178 57.1569 115.653 57.4551 115.206C57.7532 114.76 58.1771 114.412 58.6731 114.206C59.1691 114.001 59.715 113.947 60.2416 114.051C60.7683 114.156 61.2521 114.414 61.6318 114.794C62.0115 115.173 62.2702 115.657 62.375 116.184C62.4799 116.71 62.4262 117.256 62.2207 117.752C62.0153 118.248 61.6674 118.672 61.2209 118.971C60.7745 119.269 60.2496 119.428 59.7127 119.428C58.9932 119.428 58.3033 119.142 57.7946 118.633C57.2858 118.124 56.9998 117.434 56.9992 116.715H56.9981ZM40.7118 116.715C40.7115 116.178 40.8706 115.653 41.1687 115.206C41.4669 114.76 41.8908 114.412 42.3868 114.206C42.8828 114.001 43.4286 113.947 43.9553 114.051C44.4819 114.156 44.9657 114.414 45.3454 114.794C45.7252 115.173 45.9838 115.657 46.0887 116.184C46.1935 116.71 46.1398 117.256 45.9344 117.752C45.7289 118.248 45.381 118.672 44.9346 118.971C44.4881 119.269 43.9633 119.428 43.4263 119.428C42.7068 119.428 42.017 119.142 41.5082 118.633C40.9995 118.124 40.7134 117.434 40.7128 116.715H40.7118ZM24.4265 116.715C24.4262 116.178 24.5853 115.653 24.8835 115.206C25.1817 114.76 25.6057 114.412 26.1017 114.206C26.5978 114 27.1437 113.947 27.6704 114.051C28.197 114.156 28.6808 114.415 29.0605 114.794C29.4402 115.174 29.6988 115.658 29.8035 116.184C29.9082 116.711 29.8544 117.257 29.6488 117.753C29.4432 118.249 29.0951 118.673 28.6485 118.971C28.2019 119.269 27.6769 119.429 27.14 119.428C26.4208 119.427 25.7313 119.141 25.2229 118.632C24.7146 118.124 24.4289 117.434 24.4286 116.715H24.4265ZM8.1401 116.715C8.13988 116.178 8.29894 115.653 8.59714 115.206C8.89534 114.76 9.31929 114.412 9.81535 114.206C10.3114 114 10.8573 113.947 11.384 114.051C11.9107 114.156 12.3945 114.415 12.7742 114.794C13.1539 115.174 13.4124 115.658 13.5171 116.184C13.6218 116.711 13.568 117.257 13.3624 117.753C13.1568 118.249 12.8087 118.673 12.3621 118.971C11.9156 119.269 11.3906 119.429 10.8536 119.428C10.1344 119.427 9.44492 119.141 8.93656 118.632C8.42821 118.124 8.14252 117.434 8.14223 116.715H8.1401ZM-8.14626 116.715C-8.14648 116.178 -7.98745 115.653 -7.6893 115.206C-7.39114 114.76 -6.96726 114.412 -6.47126 114.206C-5.97525 114.001 -5.42941 113.947 -4.90276 114.051C-4.37612 114.156 -3.89233 114.414 -3.51258 114.794C-3.13283 115.173 -2.87419 115.657 -2.76936 116.184C-2.66453 116.71 -2.71822 117.256 -2.92365 117.752C-3.12908 118.248 -3.47701 118.672 -3.92345 118.971C-4.36988 119.269 -4.89476 119.428 -5.43169 119.428C-6.15081 119.427 -6.84012 119.141 -7.34842 118.632C-7.85671 118.123 -8.14249 117.434 -8.14305 116.715H-8.14626ZM-24.4326 116.715C-24.4328 116.178 -24.2738 115.653 -23.9757 115.206C-23.6775 114.76 -23.2536 114.412 -22.7576 114.206C-22.2616 114.001 -21.7158 113.947 -21.1891 114.051C-20.6625 114.156 -20.1787 114.414 -19.7989 114.794C-19.4192 115.173 -19.1606 115.657 -19.0557 116.184C-18.9509 116.71 -19.0046 117.256 -19.21 117.752C-19.4154 118.248 -19.7634 118.672 -20.2098 118.971C-20.6562 119.269 -21.1811 119.428 -21.7181 119.428C-22.4372 119.427 -23.1265 119.141 -23.6348 118.632C-24.1431 118.123 -24.4288 117.434 -24.4294 116.715H-24.4326ZM-40.7179 116.715C-40.7181 116.178 -40.5591 115.653 -40.2609 115.206C-39.9627 114.76 -39.5387 114.412 -39.0427 114.206C-38.5466 114 -38.0007 113.947 -37.474 114.051C-36.9473 114.156 -36.4636 114.415 -36.0839 114.794C-35.7042 115.174 -35.4456 115.658 -35.3409 116.184C-35.2362 116.711 -35.29 117.257 -35.4956 117.753C-35.7012 118.249 -36.0493 118.673 -36.4959 118.971C-36.9425 119.269 -37.4674 119.429 -38.0044 119.428C-38.7233 119.427 -39.4122 119.14 -39.9201 118.632C-40.428 118.123 -40.7134 117.434 -40.7136 116.715H-40.7179ZM-57 116.715C-57.0002 116.178 -56.8412 115.653 -56.543 115.206C-56.2448 114.76 -55.8208 114.412 -55.3247 114.206C-54.8287 114 -54.2828 113.947 -53.7561 114.051C-53.2294 114.156 -52.7456 114.415 -52.3659 114.794C-51.9862 115.174 -51.7277 115.658 -51.623 116.184C-51.5183 116.711 -51.5721 117.257 -51.7777 117.753C-51.9833 118.249 -52.3314 118.673 -52.778 118.971C-53.2245 119.269 -53.7495 119.429 -54.2865 119.428C-55.0061 119.428 -55.6961 119.142 -56.2049 118.633C-56.7137 118.124 -56.9997 117.434 -57 116.715ZM89.5708 100.428C89.5706 99.8915 89.7297 99.3665 90.0279 98.9199C90.3261 98.4734 90.75 98.1253 91.2461 97.9197C91.7422 97.7141 92.2881 97.6602 92.8147 97.7649C93.3414 97.8696 93.8252 98.1282 94.2049 98.5079C94.5846 98.8876 94.8432 99.3714 94.9479 99.8981C95.0526 100.425 94.9987 100.971 94.7932 101.467C94.5876 101.963 94.2395 102.387 93.7929 102.685C93.3463 102.983 92.8213 103.142 92.2843 103.142C91.5648 103.142 90.8747 102.856 90.3659 102.347C89.8571 101.838 89.5711 101.148 89.5708 100.428ZM73.2845 100.428C73.2843 99.8915 73.4433 99.3665 73.7415 98.9199C74.0397 98.4734 74.4637 98.1253 74.9597 97.9197C75.4558 97.7141 76.0017 97.6602 76.5284 97.7649C77.0551 97.8696 77.5388 98.1282 77.9185 98.5079C78.2982 98.8876 78.5568 99.3714 78.6615 99.8981C78.7662 100.425 78.7124 100.971 78.5068 101.467C78.3012 101.963 77.9531 102.387 77.5065 102.685C77.06 102.983 76.535 103.142 75.998 103.142C75.2784 103.142 74.5884 102.856 74.0796 102.347C73.5707 101.838 73.2848 101.148 73.2845 100.428ZM56.9981 100.428C56.9979 99.8915 57.1569 99.3666 57.4551 98.92C57.7532 98.4735 58.1771 98.1254 58.6731 97.9198C59.1691 97.7141 59.715 97.6602 60.2416 97.7648C60.7683 97.8695 61.2521 98.1279 61.6318 98.5075C62.0115 98.8871 62.2702 99.3708 62.375 99.8974C62.4799 100.424 62.4262 100.97 62.2207 101.466C62.0153 101.962 61.6674 102.386 61.2209 102.684C60.7745 102.983 60.2496 103.142 59.7127 103.142C58.9932 103.141 58.3033 102.855 57.7946 102.347C57.2858 101.838 56.9998 101.148 56.9992 100.428H56.9981ZM40.7118 100.428C40.7115 99.8915 40.8706 99.3666 41.1687 98.92C41.4669 98.4735 41.8908 98.1254 42.3868 97.9198C42.8828 97.7141 43.4286 97.6602 43.9553 97.7648C44.4819 97.8695 44.9657 98.1279 45.3454 98.5075C45.7252 98.8871 45.9838 99.3708 46.0887 99.8974C46.1935 100.424 46.1398 100.97 45.9344 101.466C45.7289 101.962 45.381 102.386 44.9346 102.684C44.4881 102.983 43.9633 103.142 43.4263 103.142C42.7068 103.141 42.017 102.855 41.5082 102.347C40.9995 101.838 40.7134 101.148 40.7128 100.428H40.7118ZM24.4265 100.428C24.4262 99.8915 24.5853 99.3665 24.8835 98.9199C25.1817 98.4734 25.6057 98.1253 26.1017 97.9197C26.5978 97.7141 27.1437 97.6602 27.6704 97.7649C28.197 97.8696 28.6808 98.1282 29.0605 98.5079C29.4402 98.8876 29.6988 99.3714 29.8035 99.8981C29.9082 100.425 29.8544 100.971 29.6488 101.467C29.4432 101.963 29.0951 102.387 28.6485 102.685C28.2019 102.983 27.6769 103.142 27.14 103.142C26.4208 103.141 25.7313 102.855 25.2229 102.346C24.7146 101.837 24.4289 101.148 24.4286 100.428H24.4265ZM8.1401 100.428C8.13988 99.8915 8.29894 99.3665 8.59714 98.9199C8.89534 98.4734 9.31929 98.1253 9.81535 97.9197C10.3114 97.7141 10.8573 97.6602 11.384 97.7649C11.9107 97.8696 12.3945 98.1282 12.7742 98.5079C13.1539 98.8876 13.4124 99.3714 13.5171 99.8981C13.6218 100.425 13.568 100.971 13.3624 101.467C13.1568 101.963 12.8087 102.387 12.3621 102.685C11.9156 102.983 11.3906 103.142 10.8536 103.142C10.1344 103.141 9.44492 102.855 8.93656 102.346C8.42821 101.837 8.14252 101.148 8.14223 100.428H8.1401ZM-8.14626 100.428C-8.14648 99.8915 -7.98745 99.3666 -7.6893 98.92C-7.39114 98.4735 -6.96726 98.1254 -6.47126 97.9198C-5.97525 97.7141 -5.42941 97.6602 -4.90276 97.7648C-4.37612 97.8695 -3.89233 98.1279 -3.51258 98.5075C-3.13283 98.8871 -2.87419 99.3708 -2.76936 99.8974C-2.66453 100.424 -2.71822 100.97 -2.92365 101.466C-3.12908 101.962 -3.47701 102.386 -3.92345 102.684C-4.36988 102.983 -4.89476 103.142 -5.43169 103.142C-6.15081 103.141 -6.84012 102.855 -7.34842 102.346C-7.85671 101.837 -8.14249 101.148 -8.14305 100.428H-8.14626ZM-24.4326 100.428C-24.4328 99.8915 -24.2738 99.3666 -23.9757 98.92C-23.6775 98.4735 -23.2536 98.1254 -22.7576 97.9198C-22.2616 97.7141 -21.7158 97.6602 -21.1891 97.7648C-20.6625 97.8695 -20.1787 98.1279 -19.7989 98.5075C-19.4192 98.8871 -19.1606 99.3708 -19.0557 99.8974C-18.9509 100.424 -19.0046 100.97 -19.21 101.466C-19.4154 101.962 -19.7634 102.386 -20.2098 102.684C-20.6562 102.983 -21.1811 103.142 -21.7181 103.142C-22.4372 103.141 -23.1265 102.855 -23.6348 102.346C-24.1431 101.837 -24.4288 101.148 -24.4294 100.428H-24.4326ZM-40.7179 100.428C-40.7181 99.8915 -40.5591 99.3665 -40.2609 98.9199C-39.9627 98.4734 -39.5387 98.1253 -39.0427 97.9197C-38.5466 97.7141 -38.0007 97.6602 -37.474 97.7649C-36.9473 97.8696 -36.4636 98.1282 -36.0839 98.5079C-35.7042 98.8876 -35.4456 99.3714 -35.3409 99.8981C-35.2362 100.425 -35.29 100.971 -35.4956 101.467C-35.7012 101.963 -36.0493 102.387 -36.4959 102.685C-36.9425 102.983 -37.4674 103.142 -38.0044 103.142C-38.7233 103.141 -39.4122 102.854 -39.9201 102.345C-40.428 101.837 -40.7134 101.147 -40.7136 100.428H-40.7179ZM-57 100.428C-57.0002 99.8915 -56.8412 99.3665 -56.543 98.9199C-56.2448 98.4734 -55.8208 98.1253 -55.3247 97.9197C-54.8287 97.7141 -54.2828 97.6602 -53.7561 97.7649C-53.2294 97.8696 -52.7456 98.1282 -52.3659 98.5079C-51.9862 98.8876 -51.7277 99.3714 -51.623 99.8981C-51.5183 100.425 -51.5721 100.971 -51.7777 101.467C-51.9833 101.963 -52.3314 102.387 -52.778 102.685C-53.2245 102.983 -53.7495 103.142 -54.2865 103.142C-55.0061 103.142 -55.6961 102.856 -56.2049 102.347C-56.7137 101.838 -56.9997 101.148 -57 100.428ZM89.5708 84.1432C89.5708 83.6062 89.7301 83.0814 90.0284 82.6349C90.3267 82.1885 90.7508 81.8406 91.2468 81.6351C91.7429 81.4297 92.2888 81.376 92.8154 81.4808C93.342 81.5857 93.8257 81.8443 94.2053 82.2241C94.5849 82.6038 94.8433 83.0876 94.948 83.6142C95.0526 84.1409 94.9987 84.6867 94.793 85.1827C94.5874 85.6787 94.2393 86.1026 93.7928 86.4008C93.3462 86.6989 92.8213 86.858 92.2843 86.8577C91.9279 86.8577 91.575 86.7875 91.2457 86.6511C90.9164 86.5147 90.6172 86.3147 90.3652 86.0626C90.1132 85.8105 89.9134 85.5113 89.7771 85.1819C89.6408 84.8526 89.5707 84.4996 89.5708 84.1432ZM73.2845 84.1432C73.2845 83.6062 73.4437 83.0814 73.7421 82.6349C74.0404 82.1885 74.4644 81.8406 74.9605 81.6351C75.4566 81.4297 76.0024 81.376 76.529 81.4808C77.0556 81.5857 77.5393 81.8443 77.9189 82.2241C78.2985 82.6038 78.557 83.0876 78.6616 83.6142C78.7662 84.1409 78.7123 84.6867 78.5067 85.1827C78.3011 85.6787 77.953 86.1026 77.5064 86.4008C77.0599 86.6989 76.5349 86.858 75.998 86.8577C75.6416 86.8577 75.2886 86.7875 74.9593 86.6511C74.63 86.5147 74.3309 86.3147 74.0789 86.0626C73.8269 85.8105 73.627 85.5113 73.4907 85.1819C73.3544 84.8526 73.2843 84.4996 73.2845 84.1432ZM56.9981 84.1432C56.9981 83.6063 57.1573 83.0815 57.4556 82.635C57.7539 82.1886 58.1778 81.8407 58.6739 81.6352C59.1699 81.4298 59.7157 81.376 60.2423 81.4808C60.7689 81.5855 61.2525 81.844 61.6322 82.2237C62.0118 82.6033 62.2704 83.087 62.3751 83.6136C62.4798 84.1402 62.4261 84.686 62.2206 85.182C62.0152 85.678 61.6672 86.102 61.2208 86.4003C60.7744 86.6985 60.2496 86.8577 59.7127 86.8577C58.9929 86.8575 58.3027 86.5713 57.7939 86.0623C57.285 85.5532 56.9992 84.8629 56.9992 84.1432H56.9981ZM40.7118 84.1432C40.7118 83.6063 40.871 83.0815 41.1692 82.635C41.4675 82.1886 41.8915 81.8407 42.3875 81.6352C42.8835 81.4298 43.4293 81.376 43.9559 81.4808C44.4825 81.5855 44.9662 81.844 45.3458 82.2237C45.7255 82.6033 45.984 83.087 46.0887 83.6136C46.1935 84.1402 46.1397 84.686 45.9343 85.182C45.7288 85.678 45.3809 86.102 44.9345 86.4003C44.4881 86.6985 43.9632 86.8577 43.4263 86.8577C42.7066 86.8575 42.0164 86.5713 41.5075 86.0623C40.9987 85.5532 40.7128 84.8629 40.7128 84.1432H40.7118ZM24.4265 84.1432C24.4265 83.6062 24.5857 83.0814 24.884 82.6349C25.1824 82.1885 25.6064 81.8406 26.1025 81.6351C26.5985 81.4297 27.1444 81.376 27.671 81.4808C28.1976 81.5857 28.6813 81.8443 29.0609 82.2241C29.4405 82.6038 29.699 83.0876 29.8036 83.6142C29.9082 84.1409 29.8543 84.6867 29.6487 85.1827C29.443 85.6787 29.0949 86.1026 28.6484 86.4008C28.2018 86.6989 27.6769 86.858 27.14 86.8577C26.4205 86.8572 25.7307 86.5709 25.2222 86.0618C24.7138 85.5528 24.4283 84.8627 24.4286 84.1432H24.4265ZM8.1401 84.1432C8.1401 83.6062 8.29933 83.0814 8.59766 82.6349C8.89599 82.1885 9.32001 81.8406 9.81609 81.6351C10.3122 81.4297 10.858 81.376 11.3847 81.4808C11.9113 81.5857 12.3949 81.8443 12.7745 82.2241C13.1541 82.6038 13.4126 83.0876 13.5172 83.6142C13.6218 84.1409 13.5679 84.6867 13.3623 85.1827C13.1567 85.6787 12.8086 86.1026 12.362 86.4008C11.9155 86.6989 11.3905 86.858 10.8536 86.8577C10.1341 86.8572 9.44432 86.5709 8.93587 86.0618C8.42742 85.5528 8.14195 84.8627 8.14223 84.1432H8.1401ZM-8.14626 84.1432C-8.14626 83.6063 -7.98706 83.0815 -7.68877 82.635C-7.3905 82.1886 -6.96654 81.8407 -6.47052 81.6352C-5.97449 81.4298 -5.42868 81.376 -4.9021 81.4808C-4.37553 81.5855 -3.89184 81.844 -3.5122 82.2237C-3.13256 82.6033 -2.87402 83.087 -2.76928 83.6136C-2.66454 84.1402 -2.71829 84.686 -2.92375 85.182C-3.12921 85.678 -3.47715 86.102 -3.92356 86.4003C-4.36996 86.6985 -4.8948 86.8577 -5.43169 86.8577C-6.15108 86.8569 -6.84072 86.5705 -7.34911 86.0615C-7.85749 85.5525 -8.14305 84.8626 -8.14305 84.1432H-8.14626ZM-24.4326 84.1432C-24.4326 83.6063 -24.2734 83.0815 -23.9751 82.635C-23.6769 82.1886 -23.2529 81.8407 -22.7569 81.6352C-22.2609 81.4298 -21.715 81.376 -21.1885 81.4808C-20.6619 81.5855 -20.1782 81.844 -19.7986 82.2237C-19.4189 82.6033 -19.1604 83.087 -19.0556 83.6136C-18.9509 84.1402 -19.0047 84.686 -19.2101 85.182C-19.4156 85.678 -19.7635 86.102 -20.2099 86.4003C-20.6563 86.6985 -21.1812 86.8577 -21.7181 86.8577C-22.4375 86.8569 -23.1271 86.5705 -23.6355 86.0615C-24.1439 85.5525 -24.4294 84.8626 -24.4294 84.1432H-24.4326ZM-40.7179 84.1432C-40.7179 83.6062 -40.5587 83.0814 -40.2604 82.6349C-39.962 82.1885 -39.538 81.8406 -39.0419 81.6351C-38.5458 81.4297 -38 81.376 -37.4734 81.4808C-36.9468 81.5857 -36.4631 81.8443 -36.0835 82.2241C-35.7039 82.6038 -35.4454 83.0876 -35.3408 83.6142C-35.2362 84.1409 -35.2901 84.6867 -35.4957 85.1827C-35.7013 85.6787 -36.0494 86.1026 -36.496 86.4008C-36.9425 86.6989 -37.4675 86.858 -38.0044 86.8577C-38.7235 86.8566 -39.4128 86.5701 -39.9208 86.0611C-40.4287 85.5521 -40.7139 84.8623 -40.7136 84.1432H-40.7179ZM-57 84.1432C-57 83.6062 -56.8408 83.0814 -56.5424 82.6349C-56.2441 82.1885 -55.8201 81.8406 -55.324 81.6351C-54.8279 81.4297 -54.2821 81.376 -53.7554 81.4808C-53.2288 81.5857 -52.7452 81.8443 -52.3656 82.2241C-51.986 82.6038 -51.7275 83.0876 -51.6229 83.6142C-51.5183 84.1409 -51.5722 84.6867 -51.7778 85.1827C-51.9834 85.6787 -52.3315 86.1026 -52.7781 86.4008C-53.2246 86.6989 -53.7496 86.858 -54.2865 86.8577C-54.6429 86.8577 -54.9959 86.7875 -55.3252 86.6511C-55.6544 86.5147 -55.9536 86.3147 -56.2056 86.0626C-56.4576 85.8105 -56.6575 85.5113 -56.7938 85.1819C-56.9301 84.8526 -57.0001 84.4996 -57 84.1432ZM89.5708 67.8568C89.5708 67.3199 89.7301 66.795 90.0284 66.3486C90.3267 65.9021 90.7508 65.5542 91.2468 65.3488C91.7429 65.1433 92.2888 65.0896 92.8154 65.1945C93.342 65.2993 93.8257 65.558 94.2053 65.9377C94.5849 66.3174 94.8433 66.8012 94.948 67.3279C95.0526 67.8545 94.9987 68.4004 94.793 68.8964C94.5874 69.3924 94.2393 69.8163 93.7928 70.1144C93.3462 70.4126 92.8213 70.5716 92.2843 70.5714C91.9279 70.5714 91.575 70.5012 91.2457 70.3647C90.9164 70.2283 90.6172 70.0283 90.3652 69.7762C90.1132 69.5242 89.9134 69.2249 89.7771 68.8956C89.6408 68.5662 89.5707 68.2132 89.5708 67.8568ZM73.2845 67.8568C73.2845 67.3199 73.4437 66.795 73.7421 66.3486C74.0404 65.9021 74.4644 65.5542 74.9605 65.3488C75.4566 65.1433 76.0024 65.0896 76.529 65.1945C77.0556 65.2993 77.5393 65.558 77.9189 65.9377C78.2985 66.3174 78.557 66.8012 78.6616 67.3279C78.7662 67.8545 78.7123 68.4004 78.5067 68.8964C78.3011 69.3924 77.953 69.8163 77.5064 70.1144C77.0599 70.4126 76.5349 70.5716 75.998 70.5714C75.6416 70.5714 75.2886 70.5012 74.9593 70.3647C74.63 70.2283 74.3309 70.0283 74.0789 69.7762C73.8269 69.5242 73.627 69.2249 73.4907 68.8956C73.3544 68.5662 73.2843 68.2132 73.2845 67.8568ZM56.9981 67.8568C56.9981 67.3199 57.1573 66.7951 57.4556 66.3487C57.7539 65.9023 58.1778 65.5543 58.6739 65.3489C59.1699 65.1434 59.7157 65.0897 60.2423 65.1944C60.7689 65.2991 61.2525 65.5577 61.6322 65.9373C62.0118 66.317 62.2704 66.8007 62.3751 67.3272C62.4798 67.8538 62.4261 68.3996 62.2206 68.8956C62.0152 69.3917 61.6672 69.8156 61.2208 70.1139C60.7744 70.4122 60.2496 70.5714 59.7127 70.5714C58.9929 70.5711 58.3027 70.285 57.7939 69.7759C57.285 69.2669 56.9992 68.5766 56.9992 67.8568H56.9981ZM40.7118 67.8568C40.7118 67.3199 40.871 66.7951 41.1692 66.3487C41.4675 65.9023 41.8915 65.5543 42.3875 65.3489C42.8835 65.1434 43.4293 65.0897 43.9559 65.1944C44.4825 65.2991 44.9662 65.5577 45.3458 65.9373C45.7255 66.317 45.984 66.8007 46.0887 67.3272C46.1935 67.8538 46.1397 68.3996 45.9343 68.8956C45.7288 69.3917 45.3809 69.8156 44.9345 70.1139C44.4881 70.4122 43.9632 70.5714 43.4263 70.5714C42.7066 70.5711 42.0164 70.285 41.5075 69.7759C40.9987 69.2669 40.7128 68.5766 40.7128 67.8568H40.7118ZM24.4265 67.8568C24.4265 67.3199 24.5857 66.795 24.884 66.3486C25.1824 65.9021 25.6064 65.5542 26.1025 65.3488C26.5985 65.1433 27.1444 65.0896 27.671 65.1945C28.1976 65.2993 28.6813 65.558 29.0609 65.9377C29.4405 66.3174 29.699 66.8012 29.8036 67.3279C29.9082 67.8545 29.8543 68.4004 29.6487 68.8964C29.443 69.3924 29.0949 69.8163 28.6484 70.1144C28.2018 70.4126 27.6769 70.5716 27.14 70.5714C26.4205 70.5708 25.7307 70.2845 25.2222 69.7755C24.7138 69.2664 24.4283 68.5763 24.4286 67.8568H24.4265ZM8.1401 67.8568C8.1401 67.3199 8.29933 66.795 8.59766 66.3486C8.89599 65.9021 9.32001 65.5542 9.81609 65.3488C10.3122 65.1433 10.858 65.0896 11.3847 65.1945C11.9113 65.2993 12.3949 65.558 12.7745 65.9377C13.1541 66.3174 13.4126 66.8012 13.5172 67.3279C13.6218 67.8545 13.5679 68.4004 13.3623 68.8964C13.1567 69.3924 12.8086 69.8163 12.362 70.1144C11.9155 70.4126 11.3905 70.5716 10.8536 70.5714C10.1341 70.5708 9.44432 70.2845 8.93587 69.7755C8.42742 69.2664 8.14195 68.5763 8.14223 67.8568H8.1401ZM-8.14626 67.8568C-8.14626 67.3199 -7.98706 66.7951 -7.68877 66.3487C-7.3905 65.9023 -6.96654 65.5543 -6.47052 65.3489C-5.97449 65.1434 -5.42868 65.0897 -4.9021 65.1944C-4.37553 65.2991 -3.89184 65.5577 -3.5122 65.9373C-3.13256 66.317 -2.87402 66.8007 -2.76928 67.3272C-2.66454 67.8538 -2.71829 68.3996 -2.92375 68.8956C-3.12921 69.3917 -3.47715 69.8156 -3.92356 70.1139C-4.36996 70.4122 -4.8948 70.5714 -5.43169 70.5714C-6.15108 70.5705 -6.84072 70.2842 -7.34911 69.7752C-7.85749 69.2662 -8.14305 68.5762 -8.14305 67.8568H-8.14626ZM-24.4326 67.8568C-24.4326 67.3199 -24.2734 66.7951 -23.9751 66.3487C-23.6769 65.9023 -23.2529 65.5543 -22.7569 65.3489C-22.2609 65.1434 -21.715 65.0897 -21.1885 65.1944C-20.6619 65.2991 -20.1782 65.5577 -19.7986 65.9373C-19.4189 66.317 -19.1604 66.8007 -19.0556 67.3272C-18.9509 67.8538 -19.0047 68.3996 -19.2101 68.8956C-19.4156 69.3917 -19.7635 69.8156 -20.2099 70.1139C-20.6563 70.4122 -21.1812 70.5714 -21.7181 70.5714C-22.4375 70.5705 -23.1271 70.2842 -23.6355 69.7752C-24.1439 69.2662 -24.4294 68.5762 -24.4294 67.8568H-24.4326ZM-40.7179 67.8568C-40.7179 67.3199 -40.5587 66.795 -40.2604 66.3486C-39.962 65.9021 -39.538 65.5542 -39.0419 65.3488C-38.5458 65.1433 -38 65.0896 -37.4734 65.1945C-36.9468 65.2993 -36.4631 65.558 -36.0835 65.9377C-35.7039 66.3174 -35.4454 66.8012 -35.3408 67.3279C-35.2362 67.8545 -35.2901 68.4004 -35.4957 68.8964C-35.7013 69.3924 -36.0494 69.8163 -36.496 70.1144C-36.9425 70.4126 -37.4675 70.5716 -38.0044 70.5714C-38.7235 70.5703 -39.4128 70.2837 -39.9208 69.7747C-40.4287 69.2657 -40.7139 68.5759 -40.7136 67.8568H-40.7179ZM-57 67.8568C-57 67.3199 -56.8408 66.795 -56.5424 66.3486C-56.2441 65.9021 -55.8201 65.5542 -55.324 65.3488C-54.8279 65.1433 -54.2821 65.0896 -53.7554 65.1945C-53.2288 65.2993 -52.7452 65.558 -52.3656 65.9377C-51.986 66.3174 -51.7275 66.8012 -51.6229 67.3279C-51.5183 67.8545 -51.5722 68.4004 -51.7778 68.8964C-51.9834 69.3924 -52.3315 69.8163 -52.7781 70.1144C-53.2246 70.4126 -53.7496 70.5716 -54.2865 70.5714C-54.6429 70.5714 -54.9959 70.5012 -55.3252 70.3647C-55.6544 70.2283 -55.9536 70.0283 -56.2056 69.7762C-56.4576 69.5242 -56.6575 69.2249 -56.7938 68.8956C-56.9301 68.5662 -57.0001 68.2132 -57 67.8568ZM89.5708 51.5726C89.5706 51.0356 89.7297 50.5106 90.0279 50.0641C90.3261 49.6175 90.75 49.2694 91.2461 49.0638C91.7422 48.8582 92.2881 48.8043 92.8147 48.9091C93.3414 49.0138 93.8252 49.2723 94.2049 49.652C94.5846 50.0317 94.8432 50.5155 94.9479 51.0422C95.0526 51.5689 94.9987 52.1148 94.7932 52.6108C94.5876 53.1069 94.2395 53.5309 93.7929 53.8291C93.3463 54.1273 92.8213 54.2863 92.2843 54.2861C91.5648 54.2858 90.8747 53.9998 90.3659 53.491C89.8571 52.9822 89.5711 52.2922 89.5708 51.5726ZM73.2845 51.5726C73.2843 51.0356 73.4433 50.5106 73.7415 50.0641C74.0397 49.6175 74.4637 49.2694 74.9597 49.0638C75.4558 48.8582 76.0017 48.8043 76.5284 48.9091C77.0551 49.0138 77.5388 49.2723 77.9185 49.652C78.2982 50.0317 78.5568 50.5155 78.6615 51.0422C78.7662 51.5689 78.7124 52.1148 78.5068 52.6108C78.3012 53.1069 77.9531 53.5309 77.5065 53.8291C77.06 54.1273 76.535 54.2863 75.998 54.2861C75.2784 54.2858 74.5884 53.9998 74.0796 53.491C73.5707 52.9822 73.2848 52.2922 73.2845 51.5726ZM56.9981 51.5726C56.9979 51.0357 57.1569 50.5107 57.4551 50.0642C57.7532 49.6176 58.1771 49.2695 58.6731 49.0639C59.1691 48.8583 59.715 48.8044 60.2416 48.909C60.7683 49.0136 61.2521 49.272 61.6318 49.6516C62.0115 50.0312 62.2702 50.5149 62.375 51.0415C62.4799 51.5681 62.4262 52.114 62.2207 52.6101C62.0153 53.1062 61.6674 53.5302 61.2209 53.8285C60.7745 54.1269 60.2496 54.2861 59.7127 54.2861C58.9932 54.2855 58.3033 53.9995 57.7946 53.4907C57.2858 52.9819 56.9998 52.2921 56.9992 51.5726H56.9981ZM40.7118 51.5726C40.7115 51.0357 40.8706 50.5107 41.1687 50.0642C41.4669 49.6176 41.8908 49.2695 42.3868 49.0639C42.8828 48.8583 43.4286 48.8044 43.9553 48.909C44.4819 49.0136 44.9657 49.272 45.3454 49.6516C45.7252 50.0312 45.9838 50.5149 46.0887 51.0415C46.1935 51.5681 46.1398 52.114 45.9344 52.6101C45.7289 53.1062 45.381 53.5302 44.9346 53.8285C44.4881 54.1269 43.9633 54.2861 43.4263 54.2861C42.7068 54.2855 42.017 53.9995 41.5082 53.4907C40.9995 52.9819 40.7134 52.2921 40.7128 51.5726H40.7118ZM24.4265 51.5726C24.4262 51.0356 24.5853 50.5106 24.8835 50.0641C25.1817 49.6175 25.6057 49.2694 26.1017 49.0638C26.5978 48.8582 27.1437 48.8043 27.6704 48.9091C28.197 49.0138 28.6808 49.2723 29.0605 49.652C29.4402 50.0317 29.6988 50.5155 29.8035 51.0422C29.9082 51.5689 29.8544 52.1148 29.6488 52.6108C29.4432 53.1069 29.0951 53.5309 28.6485 53.8291C28.2019 54.1273 27.6769 54.2863 27.14 54.2861C26.4208 54.2852 25.7313 53.999 25.2229 53.4903C24.7146 52.9815 24.4289 52.2918 24.4286 51.5726H24.4265ZM8.1401 51.5726C8.13988 51.0356 8.29894 50.5106 8.59714 50.0641C8.89534 49.6175 9.31929 49.2694 9.81535 49.0638C10.3114 48.8582 10.8573 48.8043 11.384 48.9091C11.9107 49.0138 12.3945 49.2723 12.7742 49.652C13.1539 50.0317 13.4124 50.5155 13.5171 51.0422C13.6218 51.5689 13.568 52.1148 13.3624 52.6108C13.1568 53.1069 12.8087 53.5309 12.3621 53.8291C11.9156 54.1273 11.3906 54.2863 10.8536 54.2861C10.1344 54.2852 9.44492 53.999 8.93656 53.4903C8.42821 52.9815 8.14252 52.2918 8.14223 51.5726H8.1401ZM-8.14626 51.5726C-8.14648 51.0357 -7.98745 50.5107 -7.6893 50.0642C-7.39114 49.6176 -6.96726 49.2695 -6.47126 49.0639C-5.97525 48.8583 -5.42941 48.8044 -4.90276 48.909C-4.37612 49.0136 -3.89233 49.272 -3.51258 49.6516C-3.13283 50.0312 -2.87419 50.5149 -2.76936 51.0415C-2.66453 51.5681 -2.71822 52.114 -2.92365 52.6101C-3.12908 53.1062 -3.47701 53.5302 -3.92345 53.8285C-4.36988 54.1269 -4.89476 54.2861 -5.43169 54.2861C-6.15081 54.285 -6.84012 53.9986 -7.34842 53.4899C-7.85671 52.9812 -8.14249 52.2917 -8.14305 51.5726H-8.14626ZM-24.4326 51.5726C-24.4328 51.0357 -24.2738 50.5107 -23.9757 50.0642C-23.6775 49.6176 -23.2536 49.2695 -22.7576 49.0639C-22.2616 48.8583 -21.7158 48.8044 -21.1891 48.909C-20.6625 49.0136 -20.1787 49.272 -19.7989 49.6516C-19.4192 50.0312 -19.1606 50.5149 -19.0557 51.0415C-18.9509 51.5681 -19.0046 52.114 -19.21 52.6101C-19.4154 53.1062 -19.7634 53.5302 -20.2098 53.8285C-20.6562 54.1269 -21.1811 54.2861 -21.7181 54.2861C-22.4372 54.285 -23.1265 53.9986 -23.6348 53.4899C-24.1431 52.9812 -24.4288 52.2917 -24.4294 51.5726H-24.4326ZM-40.7179 51.5726C-40.7181 51.0356 -40.5591 50.5106 -40.2609 50.0641C-39.9627 49.6175 -39.5387 49.2694 -39.0427 49.0638C-38.5466 48.8582 -38.0007 48.8043 -37.474 48.9091C-36.9473 49.0138 -36.4636 49.2723 -36.0839 49.652C-35.7042 50.0317 -35.4456 50.5155 -35.3409 51.0422C-35.2362 51.5689 -35.29 52.1148 -35.4956 52.6108C-35.7012 53.1069 -36.0493 53.5309 -36.4959 53.8291C-36.9425 54.1273 -37.4674 54.2863 -38.0044 54.2861C-38.7233 54.2847 -39.4122 53.9982 -39.9201 53.4895C-40.428 52.9808 -40.7134 52.2914 -40.7136 51.5726H-40.7179ZM-57 51.5726C-57.0002 51.0356 -56.8412 50.5106 -56.543 50.0641C-56.2448 49.6175 -55.8208 49.2694 -55.3247 49.0638C-54.8287 48.8582 -54.2828 48.8043 -53.7561 48.9091C-53.2294 49.0138 -52.7456 49.2723 -52.3659 49.652C-51.9862 50.0317 -51.7277 50.5155 -51.623 51.0422C-51.5183 51.5689 -51.5721 52.1148 -51.7777 52.6108C-51.9833 53.1069 -52.3314 53.5309 -52.778 53.8291C-53.2245 54.1273 -53.7495 54.2863 -54.2865 54.2861C-55.0061 54.2858 -55.6961 53.9998 -56.2049 53.491C-56.7137 52.9822 -56.9997 52.2922 -57 51.5726ZM89.5708 35.2862C89.5706 34.7492 89.7297 34.2243 90.0279 33.7777C90.3261 33.3311 90.75 32.983 91.2461 32.7774C91.7422 32.5718 92.2881 32.518 92.8147 32.6227C93.3414 32.7274 93.8252 32.986 94.2049 33.3657C94.5846 33.7454 94.8432 34.2292 94.9479 34.7558C95.0526 35.2825 94.9987 35.8284 94.7932 36.3245C94.5876 36.8205 94.2395 37.2445 93.7929 37.5427C93.3463 37.8409 92.8213 37.9999 92.2843 37.9997C91.5648 37.9994 90.8747 37.7135 90.3659 37.2046C89.8571 36.6958 89.5711 36.0058 89.5708 35.2862ZM73.2845 35.2862C73.2845 34.7493 73.4437 34.2245 73.742 33.7781C74.0403 33.3317 74.4642 32.9838 74.9602 32.7783C75.4563 32.5728 76.0021 32.5191 76.5286 32.6238C77.0552 32.7286 77.5389 32.9871 77.9185 33.3667C78.2982 33.7464 78.5567 34.2301 78.6615 34.7566C78.7662 35.2832 78.7124 35.829 78.507 36.3251C78.3015 36.8211 77.9536 37.245 77.5072 37.5433C77.0608 37.8416 76.5359 38.0008 75.9991 38.0008C75.2791 38.0008 74.5886 37.7148 74.0796 37.2057C73.5705 36.6966 73.2845 36.0062 73.2845 35.2862ZM56.9981 35.2862C56.9979 34.7493 57.1569 34.2244 57.4551 33.7778C57.7532 33.3313 58.1771 32.9832 58.6731 32.7775C59.1691 32.5719 59.715 32.518 60.2416 32.6226C60.7683 32.7272 61.2521 32.9857 61.6318 33.3653C62.0115 33.7449 62.2702 34.2286 62.375 34.7552C62.4799 35.2818 62.4262 35.8276 62.2207 36.3237C62.0153 36.8198 61.6674 37.2438 61.2209 37.5422C60.7745 37.8405 60.2496 37.9997 59.7127 37.9997C58.9932 37.9992 58.3033 37.7131 57.7946 37.2043C57.2858 36.6956 56.9998 36.0057 56.9992 35.2862H56.9981ZM40.7118 35.2862C40.7118 34.7494 40.8709 34.2246 41.1692 33.7782C41.4674 33.3318 41.8913 32.9839 42.3873 32.7784C42.8832 32.5729 43.429 32.5191 43.9555 32.6237C44.4821 32.7284 44.9658 32.9868 45.3454 33.3664C45.7251 33.7459 45.9837 34.2295 46.0886 34.756C46.1935 35.2825 46.1399 35.8283 45.9346 36.3243C45.7293 36.8203 45.3815 37.2444 44.9352 37.5428C44.489 37.8412 43.9642 38.0006 43.4274 38.0008C42.7075 38.0005 42.0172 37.7144 41.5082 37.2054C40.9992 36.6964 40.7131 36.0061 40.7128 35.2862H40.7118ZM24.4265 35.2862C24.4265 34.7494 24.5856 34.2246 24.8839 33.7782C25.1821 33.3318 25.606 32.9839 26.102 32.7784C26.5979 32.5729 27.1437 32.5191 27.6702 32.6237C28.1968 32.7284 28.6805 32.9868 29.0602 33.3664C29.4398 33.7459 29.6984 34.2295 29.8033 34.756C29.9082 35.2825 29.8546 35.8283 29.6493 36.3243C29.444 36.8203 29.0962 37.2444 28.6499 37.5428C28.2037 37.8412 27.679 38.0006 27.1421 38.0008C26.4223 38.0005 25.7322 37.7144 25.2233 37.2053C24.7145 36.6963 24.4286 36.006 24.4286 35.2862H24.4265ZM8.1401 35.2862C8.1401 34.7494 8.29928 34.2246 8.59751 33.7782C8.89574 33.3318 9.31964 32.9839 9.81561 32.7784C10.3116 32.5729 10.8573 32.5191 11.3839 32.6237C11.9104 32.7284 12.3941 32.9868 12.7738 33.3664C13.1535 33.7459 13.4121 34.2295 13.517 34.756C13.6218 35.2825 13.5682 35.8283 13.3629 36.3243C13.1576 36.8203 12.8099 37.2444 12.3636 37.5428C11.9173 37.8412 11.3926 38.0006 10.8557 38.0008C10.136 38.0005 9.44579 37.7144 8.93694 37.2053C8.42809 36.6963 8.14223 36.006 8.14223 35.2862H8.1401ZM-8.14626 35.2862C-8.14626 34.7495 -7.98714 34.2248 -7.689 33.7784C-7.39086 33.3321 -6.96709 32.9842 -6.47126 32.7786C-5.97542 32.573 -5.42977 32.5191 -4.90329 32.6236C-4.3768 32.7281 -3.8931 32.9863 -3.51333 33.3656C-3.13357 33.7449 -2.87477 34.2283 -2.76967 34.7547C-2.66457 35.281 -2.71787 35.8267 -2.92284 36.3228C-3.1278 36.8189 -3.47523 37.2431 -3.92122 37.5417C-4.36721 37.8404 -4.89172 38.0002 -5.42848 38.0008C-6.14834 38.0005 -6.83864 37.7144 -7.34766 37.2054C-7.85668 36.6964 -8.14277 36.0061 -8.14305 35.2862H-8.14626ZM-24.4326 35.2862C-24.4326 34.7495 -24.2735 34.2248 -23.9754 33.7784C-23.6772 33.3321 -23.2535 32.9842 -22.7576 32.7786C-22.2618 32.573 -21.7161 32.5191 -21.1896 32.6236C-20.6632 32.7281 -20.1795 32.9863 -19.7997 33.3656C-19.4199 33.7449 -19.1611 34.2283 -19.056 34.7547C-18.9509 35.281 -19.0042 35.8267 -19.2092 36.3228C-19.4142 36.8189 -19.7616 37.2431 -20.2076 37.5417C-20.6536 37.8404 -21.1781 38.0002 -21.7148 38.0008C-22.4347 38.0005 -23.125 37.7144 -23.634 37.2054C-24.143 36.6964 -24.4291 36.0061 -24.4294 35.2862H-24.4326ZM-40.7179 35.2862C-40.7179 34.7495 -40.5588 34.2248 -40.2607 33.7784C-39.9625 33.3321 -39.5387 32.9842 -39.0429 32.7786C-38.5471 32.573 -38.0014 32.5191 -37.4749 32.6236C-36.9485 32.7281 -36.4648 32.9863 -36.085 33.3656C-35.7052 33.7449 -35.4464 34.2283 -35.3413 34.7547C-35.2362 35.281 -35.2895 35.8267 -35.4945 36.3228C-35.6995 36.8189 -36.0469 37.2431 -36.4929 37.5417C-36.9389 37.8404 -37.4634 38.0002 -38.0001 38.0008C-38.7199 38.0005 -39.4101 37.7144 -39.9189 37.2053C-40.4278 36.6963 -40.7136 36.006 -40.7136 35.2862H-40.7179ZM-57 35.2862C-57 34.7493 -56.8408 34.2244 -56.5424 33.778C-56.2441 33.3316 -55.8201 32.9836 -55.324 32.7782C-54.8279 32.5728 -54.2821 32.5191 -53.7554 32.6239C-53.2288 32.7287 -52.7452 32.9874 -52.3656 33.3671C-51.986 33.7469 -51.7275 34.2307 -51.6229 34.7573C-51.5183 35.2839 -51.5722 35.8298 -51.7778 36.3258C-51.9834 36.8218 -52.3315 37.2457 -52.7781 37.5438C-53.2246 37.842 -53.7496 38.001 -54.2865 38.0008C-55.0063 38.0005 -55.6964 37.7144 -56.2053 37.2053C-56.7141 36.6963 -57 36.006 -57 35.2862ZM89.5708 19.0009C89.5708 18.464 89.7301 17.9391 90.0284 17.4927C90.3267 17.0463 90.7508 16.6983 91.2468 16.4929C91.7429 16.2875 92.2888 16.2338 92.8154 16.3386C93.342 16.4434 93.8257 16.7021 94.2053 17.0818C94.5849 17.4616 94.8433 17.9454 94.948 18.472C95.0526 18.9987 94.9987 19.5445 94.793 20.0405C94.5874 20.5365 94.2393 20.9604 93.7928 21.2585C93.3462 21.5567 92.8213 21.7157 92.2843 21.7155C91.9279 21.7155 91.575 21.6453 91.2457 21.5089C90.9164 21.3724 90.6172 21.1724 90.3652 20.9204C90.1132 20.6683 89.9134 20.369 89.7771 20.0397C89.6408 19.7103 89.5707 19.3574 89.5708 19.0009ZM73.2845 19.0009C73.2845 18.464 73.4437 17.9391 73.7421 17.4927C74.0404 17.0463 74.4644 16.6983 74.9605 16.4929C75.4566 16.2875 76.0024 16.2338 76.529 16.3386C77.0556 16.4434 77.5393 16.7021 77.9189 17.0818C78.2985 17.4616 78.557 17.9454 78.6616 18.472C78.7662 18.9987 78.7123 19.5445 78.5067 20.0405C78.3011 20.5365 77.953 20.9604 77.5064 21.2585C77.0599 21.5567 76.5349 21.7157 75.998 21.7155C75.6416 21.7155 75.2886 21.6453 74.9593 21.5089C74.63 21.3724 74.3309 21.1724 74.0789 20.9204C73.8269 20.6683 73.627 20.369 73.4907 20.0397C73.3544 19.7103 73.2843 19.3574 73.2845 19.0009ZM56.9981 19.0009C56.9981 18.464 57.1573 17.9392 57.4556 17.4928C57.7539 17.0464 58.1778 16.6985 58.6739 16.493C59.1699 16.2875 59.7157 16.2338 60.2423 16.3385C60.7689 16.4433 61.2525 16.7018 61.6322 17.0814C62.0118 17.4611 62.2704 17.9448 62.3751 18.4713C62.4798 18.9979 62.4261 19.5437 62.2206 20.0398C62.0152 20.5358 61.6672 20.9597 61.2208 21.258C60.7744 21.5563 60.2496 21.7155 59.7127 21.7155C58.9929 21.7152 58.3027 21.4291 57.7939 20.9201C57.285 20.411 56.9992 19.7207 56.9992 19.0009H56.9981ZM40.7118 19.0009C40.7118 18.464 40.871 17.9392 41.1692 17.4928C41.4675 17.0464 41.8915 16.6985 42.3875 16.493C42.8835 16.2875 43.4293 16.2338 43.9559 16.3385C44.4825 16.4433 44.9662 16.7018 45.3458 17.0814C45.7255 17.4611 45.984 17.9448 46.0887 18.4713C46.1935 18.9979 46.1397 19.5437 45.9343 20.0398C45.7288 20.5358 45.3809 20.9597 44.9345 21.258C44.4881 21.5563 43.9632 21.7155 43.4263 21.7155C42.7066 21.7152 42.0164 21.4291 41.5075 20.9201C40.9987 20.411 40.7128 19.7207 40.7128 19.0009H40.7118ZM24.4265 19.0009C24.4265 18.464 24.5857 17.9391 24.884 17.4927C25.1824 17.0463 25.6064 16.6983 26.1025 16.4929C26.5985 16.2875 27.1444 16.2338 27.671 16.3386C28.1976 16.4434 28.6813 16.7021 29.0609 17.0818C29.4405 17.4616 29.699 17.9454 29.8036 18.472C29.9082 18.9987 29.8543 19.5445 29.6487 20.0405C29.443 20.5365 29.0949 20.9604 28.6484 21.2585C28.2018 21.5567 27.6769 21.7157 27.14 21.7155C26.4205 21.7149 25.7307 21.4287 25.2222 20.9196C24.7138 20.4106 24.4283 19.7204 24.4286 19.0009H24.4265ZM8.1401 19.0009C8.1401 18.464 8.29933 17.9391 8.59766 17.4927C8.89599 17.0463 9.32001 16.6983 9.81609 16.4929C10.3122 16.2875 10.858 16.2338 11.3847 16.3386C11.9113 16.4434 12.3949 16.7021 12.7745 17.0818C13.1541 17.4616 13.4126 17.9454 13.5172 18.472C13.6218 18.9987 13.5679 19.5445 13.3623 20.0405C13.1567 20.5365 12.8086 20.9604 12.362 21.2585C11.9155 21.5567 11.3905 21.7157 10.8536 21.7155C10.1341 21.7149 9.44432 21.4287 8.93587 20.9196C8.42742 20.4106 8.14195 19.7204 8.14223 19.0009H8.1401ZM-8.14626 19.0009C-8.14626 18.464 -7.98706 17.9392 -7.68877 17.4928C-7.3905 17.0464 -6.96654 16.6985 -6.47052 16.493C-5.97449 16.2875 -5.42868 16.2338 -4.9021 16.3385C-4.37553 16.4433 -3.89184 16.7018 -3.5122 17.0814C-3.13256 17.4611 -2.87402 17.9448 -2.76928 18.4713C-2.66454 18.9979 -2.71829 19.5437 -2.92375 20.0398C-3.12921 20.5358 -3.47715 20.9597 -3.92356 21.258C-4.36996 21.5563 -4.8948 21.7155 -5.43169 21.7155C-6.15108 21.7147 -6.84072 21.4283 -7.34911 20.9193C-7.85749 20.4103 -8.14305 19.7203 -8.14305 19.0009H-8.14626ZM-24.4326 19.0009C-24.4326 18.464 -24.2734 17.9392 -23.9751 17.4928C-23.6769 17.0464 -23.2529 16.6985 -22.7569 16.493C-22.2609 16.2875 -21.715 16.2338 -21.1885 16.3385C-20.6619 16.4433 -20.1782 16.7018 -19.7986 17.0814C-19.4189 17.4611 -19.1604 17.9448 -19.0556 18.4713C-18.9509 18.9979 -19.0047 19.5437 -19.2101 20.0398C-19.4156 20.5358 -19.7635 20.9597 -20.2099 21.258C-20.6563 21.5563 -21.1812 21.7155 -21.7181 21.7155C-22.4375 21.7147 -23.1271 21.4283 -23.6355 20.9193C-24.1439 20.4103 -24.4294 19.7203 -24.4294 19.0009H-24.4326ZM-40.7179 19.0009C-40.7179 18.464 -40.5587 17.9391 -40.2604 17.4927C-39.962 17.0463 -39.538 16.6983 -39.0419 16.4929C-38.5458 16.2875 -38 16.2338 -37.4734 16.3386C-36.9468 16.4434 -36.4631 16.7021 -36.0835 17.0818C-35.7039 17.4616 -35.4454 17.9454 -35.3408 18.472C-35.2362 18.9987 -35.2901 19.5445 -35.4957 20.0405C-35.7013 20.5365 -36.0494 20.9604 -36.496 21.2585C-36.9425 21.5567 -37.4675 21.7157 -38.0044 21.7155C-38.7235 21.7144 -39.4128 21.4278 -39.9208 20.9189C-40.4287 20.4099 -40.7139 19.72 -40.7136 19.0009H-40.7179ZM-57 19.0009C-57 18.464 -56.8408 17.9391 -56.5424 17.4927C-56.2441 17.0463 -55.8201 16.6983 -55.324 16.4929C-54.8279 16.2875 -54.2821 16.2338 -53.7554 16.3386C-53.2288 16.4434 -52.7452 16.7021 -52.3656 17.0818C-51.986 17.4616 -51.7275 17.9454 -51.6229 18.472C-51.5183 18.9987 -51.5722 19.5445 -51.7778 20.0405C-51.9834 20.5365 -52.3315 20.9604 -52.7781 21.2585C-53.2246 21.5567 -53.7496 21.7157 -54.2865 21.7155C-54.6429 21.7155 -54.9959 21.6453 -55.3252 21.5089C-55.6544 21.3724 -55.9536 21.1724 -56.2056 20.9204C-56.4576 20.6683 -56.6575 20.369 -56.7938 20.0397C-56.9301 19.7103 -57.0001 19.3574 -57 19.0009ZM89.5708 2.71457C89.5708 2.17764 89.7301 1.65276 90.0284 1.20633C90.3267 0.759894 90.7508 0.411962 91.2468 0.206533C91.7429 0.00110543 92.2888 -0.0525896 92.8154 0.0522395C93.342 0.157069 93.8257 0.415713 94.2053 0.79546C94.5849 1.17521 94.8433 1.659 94.948 2.18564C95.0526 2.71229 94.9987 3.25813 94.793 3.75414C94.5874 4.25014 94.2393 4.67403 93.7928 4.97218C93.3462 5.27033 92.8213 5.42936 92.2843 5.42915C91.9279 5.42915 91.575 5.35892 91.2457 5.22249C90.9164 5.08606 90.6172 4.88609 90.3652 4.634C90.1132 4.38192 89.9134 4.08265 89.7771 3.75331C89.6408 3.42397 89.5707 3.07101 89.5708 2.71457ZM73.2845 2.71457C73.2845 2.17764 73.4437 1.65276 73.7421 1.20633C74.0404 0.759894 74.4644 0.411962 74.9605 0.206533C75.4566 0.00110543 76.0024 -0.0525896 76.529 0.0522395C77.0556 0.157069 77.5393 0.415713 77.9189 0.79546C78.2985 1.17521 78.557 1.659 78.6616 2.18564C78.7662 2.71229 78.7123 3.25813 78.5067 3.75414C78.3011 4.25014 77.953 4.67403 77.5064 4.97218C77.0599 5.27033 76.5349 5.42936 75.998 5.42915C75.6416 5.42915 75.2886 5.35892 74.9593 5.22249C74.63 5.08606 74.3309 4.88609 74.0789 4.634C73.8269 4.38192 73.627 4.08265 73.4907 3.75331C73.3544 3.42397 73.2843 3.07101 73.2845 2.71457ZM56.9981 2.71457C56.9981 2.17768 57.1573 1.65285 57.4556 1.20644C57.7539 0.760029 58.1778 0.412095 58.6739 0.206636C59.1699 0.00117618 59.7157 -0.0525814 60.2423 0.052161C60.7689 0.156903 61.2525 0.415441 61.6322 0.795081C62.0118 1.17472 62.2704 1.65841 62.3751 2.18499C62.4798 2.71156 62.4261 3.25737 62.2206 3.7534C62.0152 4.24942 61.6672 4.67338 61.2208 4.97166C60.7744 5.26994 60.2496 5.42915 59.7127 5.42915C58.9929 5.42886 58.3027 5.14274 57.7939 4.63369C57.285 4.12464 56.9992 3.43434 56.9992 2.71457H56.9981ZM40.7118 2.71457C40.7118 2.17768 40.871 1.65285 41.1692 1.20644C41.4675 0.760029 41.8915 0.412095 42.3875 0.206636C42.8835 0.00117618 43.4293 -0.0525814 43.9559 0.052161C44.4825 0.156903 44.9662 0.415441 45.3458 0.795081C45.7255 1.17472 45.984 1.65841 46.0887 2.18499C46.1935 2.71156 46.1397 3.25737 45.9343 3.7534C45.7288 4.24942 45.3809 4.67338 44.9345 4.97166C44.4881 5.26994 43.9632 5.42915 43.4263 5.42915C42.7066 5.42886 42.0164 5.14274 41.5075 4.63369C40.9987 4.12464 40.7128 3.43434 40.7128 2.71457H40.7118ZM24.4265 2.71457C24.4265 2.17764 24.5857 1.65276 24.884 1.20633C25.1824 0.759894 25.6064 0.411962 26.1025 0.206533C26.5985 0.00110543 27.1444 -0.0525896 27.671 0.0522395C28.1976 0.157069 28.6813 0.415713 29.0609 0.79546C29.4405 1.17521 29.699 1.659 29.8036 2.18564C29.9082 2.71229 29.8543 3.25813 29.6487 3.75414C29.443 4.25014 29.0949 4.67403 28.6484 4.97218C28.2018 5.27033 27.6769 5.42936 27.14 5.42915C26.4205 5.42858 25.7307 5.14229 25.2222 4.63324C24.7138 4.12419 24.4283 3.43405 24.4286 2.71457H24.4265ZM8.1401 2.71457C8.1401 2.17764 8.29933 1.65276 8.59766 1.20633C8.89599 0.759894 9.32001 0.411962 9.81609 0.206533C10.3122 0.00110543 10.858 -0.0525896 11.3847 0.0522395C11.9113 0.157069 12.3949 0.415713 12.7745 0.79546C13.1541 1.17521 13.4126 1.659 13.5172 2.18564C13.6218 2.71229 13.5679 3.25813 13.3623 3.75414C13.1567 4.25014 12.8086 4.67403 12.362 4.97218C11.9155 5.27033 11.3905 5.42936 10.8536 5.42915C10.1341 5.42858 9.44432 5.14229 8.93587 4.63324C8.42742 4.12419 8.14195 3.43405 8.14223 2.71457H8.1401ZM-8.14626 2.71457C-8.14626 2.17768 -7.98706 1.65285 -7.68877 1.20644C-7.3905 0.760029 -6.96654 0.412095 -6.47052 0.206636C-5.97449 0.00117618 -5.42868 -0.0525814 -4.9021 0.052161C-4.37553 0.156903 -3.89184 0.415441 -3.5122 0.795081C-3.13256 1.17472 -2.87402 1.65841 -2.76928 2.18499C-2.66454 2.71156 -2.71829 3.25737 -2.92375 3.7534C-3.12921 4.24942 -3.47715 4.67338 -3.92356 4.97166C-4.36996 5.26994 -4.8948 5.42915 -5.43169 5.42915C-6.15108 5.4283 -6.84072 5.14192 -7.34911 4.63293C-7.85749 4.12394 -8.14305 3.43397 -8.14305 2.71457H-8.14626ZM-24.4326 2.71457C-24.4326 2.17768 -24.2734 1.65285 -23.9751 1.20644C-23.6769 0.760029 -23.2529 0.412095 -22.7569 0.206636C-22.2609 0.00117618 -21.715 -0.0525814 -21.1885 0.052161C-20.6619 0.156903 -20.1782 0.415441 -19.7986 0.795081C-19.4189 1.17472 -19.1604 1.65841 -19.0556 2.18499C-18.9509 2.71156 -19.0047 3.25737 -19.2101 3.7534C-19.4156 4.24942 -19.7635 4.67338 -20.2099 4.97166C-20.6563 5.26994 -21.1812 5.42915 -21.7181 5.42915C-22.4375 5.4283 -23.1271 5.14192 -23.6355 4.63293C-24.1439 4.12394 -24.4294 3.43397 -24.4294 2.71457H-24.4326ZM-40.7179 2.71457C-40.7177 2.17786 -40.5584 1.65326 -40.2601 1.20706C-39.9619 0.760865 -39.538 0.413097 -39.0422 0.207708C-38.5463 0.00231803 -38.0007 -0.0514741 -37.4743 0.0531291C-36.9479 0.157732 -36.4643 0.416036 -36.0846 0.795397C-35.705 1.17476 -35.4463 1.65815 -35.3412 2.18448C-35.2362 2.71082 -35.2896 3.25647 -35.4946 3.75249C-35.6996 4.24851 -36.047 4.67262 -36.493 4.97124C-36.9389 5.26986 -37.4634 5.42958 -38.0001 5.43022C-38.3567 5.43022 -38.7097 5.35996 -39.039 5.22346C-39.3684 5.08696 -39.6676 4.88689 -39.9196 4.63469C-40.1716 4.38249 -40.3715 4.08311 -40.5077 3.75364C-40.6439 3.42418 -40.7139 3.0711 -40.7136 2.71457H-40.7179ZM-57 2.71457C-56.9998 2.17768 -56.8404 1.65291 -56.5419 1.20662C-56.2435 0.760327 -55.8194 0.412561 -55.3233 0.207297C-54.8272 0.00203298 -54.2813 -0.0515094 -53.7548 0.0534406C-53.2283 0.158391 -52.7447 0.417119 -52.3652 0.796909C-51.9857 1.1767 -51.7273 1.66049 -51.6228 2.18711C-51.5183 2.71372 -51.5722 3.25951 -51.7779 3.75545C-51.9836 4.2514 -52.3317 4.67522 -52.7782 4.97332C-53.2247 5.27143 -53.7496 5.43043 -54.2865 5.43022C-54.643 5.43022 -54.996 5.35996 -55.3254 5.22346C-55.6548 5.08696 -55.954 4.88689 -56.206 4.63469C-56.458 4.38249 -56.6578 4.08311 -56.7941 3.75364C-56.9303 3.42418 -57.0003 3.0711 -57 2.71457Z" fill="#3A36DB" />
</svg>