<svg width="15" height="17" viewBox="0 0 15 17" fill="none" xmlns="http://www.w3.org/2000/svg">
  <path d="M1.83301 2.83366V14.167C1.83301 14.5427 1.98226 14.9031 2.24794 15.1687C2.51362 15.4344 2.87395 15.5837 3.24967 15.5837H11.7497C12.1254 15.5837 12.4857 15.4344 12.7514 15.1687C13.0171 14.9031 13.1663 14.5427 13.1663 14.167V5.90924C13.1663 5.72051 13.1286 5.53369 13.0554 5.35975C12.9821 5.18581 12.8749 5.02825 12.7399 4.89633L9.59492 1.82074C9.33026 1.56196 8.97483 1.41704 8.60467 1.41699H3.24967C2.87395 1.41699 2.51362 1.56625 2.24794 1.83192C1.98226 2.0976 1.83301 2.45794 1.83301 2.83366V2.83366Z" stroke="#3A36DB" stroke-width="2" stroke-linecap="round" stroke-linejoin="round" />
  <path d="M5.375 9.20898H9.625" stroke="#3A36DB" stroke-width="2" stroke-linecap="round" stroke-linejoin="round" />
  <path d="M5.375 12.042H7.5" stroke="#3A36DB" stroke-width="2" stroke-linecap="round" stroke-linejoin="round" />
  <path d="M8.91602 1.41699V4.25033C8.91602 4.62605 9.06527 4.98638 9.33095 5.25206C9.59662 5.51774 9.95696 5.66699 10.3327 5.66699H13.166" stroke="#3A36DB" stroke-width="2" stroke-linejoin="round" />
</svg>