<svg width="31" height="31" viewBox="0 0 31 31" fill="none" xmlns="http://www.w3.org/2000/svg">
  <path d="M24.5423 5.16699H6.45898C5.43127 5.16699 4.44565 5.57525 3.71895 6.30195C2.99224 7.02866 2.58398 8.01428 2.58398 9.04199V21.9587C2.58398 22.9864 2.99224 23.972 3.71895 24.6987C4.44565 25.4254 5.43127 25.8337 6.45898 25.8337H24.5423C25.57 25.8337 26.5557 25.4254 27.2824 24.6987C28.0091 23.972 28.4173 22.9864 28.4173 21.9587V9.04199C28.4173 8.01428 28.0091 7.02866 27.2824 6.30195C26.5557 5.57525 25.57 5.16699 24.5423 5.16699ZM24.5423 7.75032L16.1465 13.5241C15.9501 13.6374 15.7274 13.6971 15.5007 13.6971C15.2739 13.6971 15.0512 13.6374 14.8548 13.5241L6.45898 7.75032H24.5423Z" fill="white" />
</svg>