<svg width="130" height="28" viewBox="0 0 130 28" fill="none" xmlns="http://www.w3.org/2000/svg">
<path d="M29.3464 1.99066L24.2435 27.4749H17.0182L18.986 17.5687H9.18617L7.21836 27.4749H0L5.10291 1.99066H12.3213L10.425 11.519H20.234L22.128 1.98145L29.3464 1.99066Z" fill="#081518"/>
<path d="M32.1581 9.65276C34.6195 9.79329 37.081 9.96607 39.5402 10.1435C39.6852 10.1583 39.8249 10.2057 39.9489 10.2822C40.0729 10.3586 40.1779 10.4622 40.2561 10.585C40.3342 10.7079 40.3835 10.8468 40.4001 10.9914C40.4168 11.1359 40.4004 11.2824 40.3522 11.4197C38.4879 17.3478 35.6213 22.9134 31.8766 27.8755C31.8296 27.935 31.7634 27.9763 31.6893 27.9925C31.6151 28.0086 31.5377 27.9986 31.4701 27.964C31.4026 27.9295 31.3492 27.8726 31.319 27.8031C31.2888 27.7336 31.2836 27.6558 31.3045 27.5829C32.5848 22.0539 33.1085 16.5042 31.2284 10.9774C31.2193 10.9525 31.2116 10.9271 31.2053 10.9014V10.8784C31.1655 10.7332 31.1602 10.5807 31.1896 10.4331C31.219 10.2854 31.2825 10.1467 31.3749 10.0278C31.4674 9.90886 31.5863 9.81307 31.7222 9.74798C31.8581 9.68289 32.0073 9.65029 32.1581 9.65276ZM34.0036 6.37912C33.6532 6.07754 33.3736 5.70261 33.1846 5.28097C32.9956 4.85933 32.9019 4.40131 32.9101 3.93943C32.896 3.40886 32.9981 2.88162 33.2093 2.39456C33.4205 1.9075 33.7357 1.47239 34.1328 1.11963C34.9479 0.373209 36.0245 0 37.3625 0C38.579 0 39.551 0.307168 40.2784 0.921505C40.6311 1.20916 40.9132 1.57357 41.1031 1.98685C41.293 2.40013 41.3858 2.85132 41.3742 3.3059C41.3916 3.85217 41.2895 4.39566 41.0752 4.89855C40.8609 5.40143 40.5394 5.85165 40.1331 6.21785C39.3072 6.98731 38.226 7.37204 36.8896 7.37204C35.6992 7.37204 34.7387 7.04107 34.0082 6.37912H34.0036Z" fill="#02B4D7"/>
<path d="M57.6383 7.41602L56.4341 13.6362C55.9145 13.5691 55.3915 13.5329 54.8677 13.5279C53.3113 13.5279 52.0655 13.898 51.1304 14.6383C50.1954 15.3786 49.5694 16.5497 49.2526 18.1515L47.3563 27.4703H40.4355L44.3712 7.73854H50.9297L50.4914 9.92251C52.1463 8.25151 54.5285 7.41602 57.6383 7.41602Z" fill="#081518"/>
<path d="M78.274 19.3196H63.7634C64.0064 21.4575 65.5013 22.5257 68.2481 22.5242C69.1148 22.5233 69.9759 22.3857 70.7995 22.1164C71.6096 21.8589 72.3639 21.4518 73.0234 20.9161L75.9025 25.2472C73.5955 26.9474 70.7888 27.7967 67.4822 27.7952C65.3921 27.7952 63.5512 27.425 61.9594 26.6848C60.4512 26.0205 59.1688 24.9328 58.2683 23.5539C57.3837 22.1298 56.934 20.479 56.9742 18.8036C56.9451 16.7559 57.4678 14.738 58.4875 12.9613C59.4871 11.2336 60.9522 9.8208 62.7161 8.88359C64.5278 7.89912 66.6002 7.40765 68.9332 7.40918C70.9018 7.40918 72.6212 7.76703 74.0915 8.48274C75.4988 9.1388 76.6809 10.195 77.4896 11.5191C78.2967 12.8986 78.7063 14.474 78.6731 16.0713C78.6562 17.1652 78.5224 18.2541 78.274 19.3196ZM65.8166 13.2216C65.0349 13.8577 64.4633 14.7143 64.1764 15.6797H72.306C72.329 14.6353 72.0007 13.8159 71.3209 13.2216C70.6411 12.6272 69.7422 12.33 68.6241 12.33C67.6094 12.2921 66.613 12.6073 65.8051 13.2216H65.8166Z" fill="#081518"/>
<path d="M113.819 9.16188C115.08 10.3276 115.711 11.9778 115.713 14.1127C115.711 14.9323 115.626 15.7497 115.459 16.5523L113.307 27.4745H106.386L108.423 17.278C108.519 16.8235 108.568 16.3603 108.568 15.8958C108.568 15.0203 108.356 14.3661 107.929 13.9284C107.503 13.4906 106.891 13.2741 106.084 13.2741C103.871 13.2741 102.474 14.694 101.892 17.5338L99.8875 27.4722H92.9667L95.0429 17.278C95.143 16.8366 95.1917 16.3852 95.1883 15.9326C95.1883 15.0572 94.976 14.3953 94.5516 13.9468C94.1271 13.4983 93.5119 13.2741 92.706 13.2741C90.4714 13.2741 89.0619 14.7186 88.4774 17.6075L86.5096 27.4722H79.5889L83.5268 7.74046H90.09L89.6863 9.74473C90.4674 8.98566 91.3916 8.38894 92.4054 7.98914C93.4191 7.58934 94.5023 7.3944 95.592 7.41563C96.82 7.39549 98.0343 7.6763 99.1285 8.23346C100.156 8.76322 100.996 9.59558 101.535 10.6179C102.425 9.59848 103.527 8.78486 104.764 8.23346C106.035 7.67912 107.408 7.40036 108.795 7.41563C110.88 7.41563 112.555 7.99771 113.819 9.16188Z" fill="#081518"/>
<path d="M123.079 0.460938H130L124.609 27.4749H117.688L123.079 0.460938Z" fill="#081518"/>
</svg>
