<svg width="56" height="32" viewBox="0 0 56 32" fill="none" xmlns="http://www.w3.org/2000/svg">
  <rect opacity="0.6" x="0.5" width="55" height="32" rx="6" fill="black" />
  <g clip-path="url(#clip0_114_3276)">
    <path d="M21.6667 24.1663C26.177 24.1663 29.8333 20.51 29.8333 15.9997C29.8333 11.4893 26.177 7.83301 21.6667 7.83301C17.1563 7.83301 13.5 11.4893 13.5 15.9997C13.5 20.51 17.1563 24.1663 21.6667 24.1663Z" fill="#EA001B" />
    <path d="M33.3327 24.1663C37.843 24.1663 41.4993 20.51 41.4993 15.9997C41.4993 11.4893 37.843 7.83301 33.3327 7.83301C28.8224 7.83301 25.166 11.4893 25.166 15.9997C25.166 20.51 28.8224 24.1663 33.3327 24.1663Z" fill="#FFA200" fill-opacity="0.8" />
  </g>
  <defs>
    <clipPath id="clip0_114_3276">
      <rect width="28" height="28" fill="white" transform="translate(13.5 2)" />
    </clipPath>
  </defs>
</svg>