<svg width="25" height="24" viewBox="0 0 25 24" fill="none" xmlns="http://www.w3.org/2000/svg">
  <path d="M19.5003 19.9999H5.5003C5.23508 19.9999 4.98073 20.1052 4.79319 20.2928C4.60565 20.4803 4.5003 20.7346 4.5003 20.9999C4.5003 21.2651 4.60565 21.5194 4.79319 21.707C4.98073 21.8945 5.23508 21.9999 5.5003 21.9999H19.5003C19.7655 21.9999 20.0199 21.8945 20.2074 21.707C20.3949 21.5194 20.5003 21.2651 20.5003 20.9999C20.5003 20.7346 20.3949 20.4803 20.2074 20.2928C20.0199 20.1052 19.7655 19.9999 19.5003 19.9999ZM5.5003 17.9999H5.5903L9.7603 17.6199C10.2171 17.5744 10.6443 17.3731 10.9703 17.0499L19.9703 8.04986C20.3196 7.68083 20.5084 7.18837 20.4953 6.68039C20.4822 6.17242 20.2682 5.69037 19.9003 5.33986L17.1603 2.59986C16.8027 2.26395 16.3341 2.07122 15.8436 2.05831C15.3532 2.0454 14.8751 2.21323 14.5003 2.52986L5.5003 11.5299C5.17706 11.8558 4.9758 12.2831 4.9303 12.7399L4.5003 16.9099C4.48683 17.0563 4.50583 17.204 4.55596 17.3422C4.60608 17.4805 4.6861 17.606 4.7903 17.7099C4.88374 17.8025 4.99455 17.8759 5.11639 17.9256C5.23823 17.9754 5.36869 18.0006 5.5003 17.9999ZM15.7703 3.99986L18.5003 6.72986L16.5003 8.67986L13.8203 5.99986L15.7703 3.99986Z" fill="#859C82" />
</svg>