<svg width="21" height="22" viewBox="0 0 21 22" fill="none" xmlns="http://www.w3.org/2000/svg">
<path d="M10.5 2.31055C5.42637 2.31055 1.3125 6.42441 1.3125 11.498C1.3125 16.5717 5.42637 20.6855 10.5 20.6855C15.5736 20.6855 19.6875 16.5717 19.6875 11.498C19.6875 6.42441 15.5736 2.31055 10.5 2.31055ZM13.4552 11.6396L8.97627 14.8982C8.95171 14.9159 8.92277 14.9264 8.89262 14.9287C8.86247 14.931 8.83227 14.9249 8.80536 14.9111C8.77844 14.8973 8.75584 14.8764 8.74005 14.8506C8.72425 14.8248 8.71587 14.7952 8.71582 14.7649V8.25166C8.71572 8.22136 8.72401 8.19163 8.73978 8.16576C8.75554 8.13988 8.77816 8.11888 8.80513 8.10508C8.8321 8.09127 8.86237 8.08521 8.89258 8.08755C8.92278 8.0899 8.95175 8.10056 8.97627 8.11836L13.4552 11.375C13.4763 11.39 13.4936 11.4098 13.5055 11.4328C13.5174 11.4558 13.5236 11.4814 13.5236 11.5073C13.5236 11.5332 13.5174 11.5587 13.5055 11.5817C13.4936 11.6048 13.4763 11.6246 13.4552 11.6396Z" fill="#3A36DB"/>
</svg>
