<svg width="19" height="16" viewBox="0 0 19 16" fill="none" xmlns="http://www.w3.org/2000/svg">
  <path d="M2.37782 15.1452C2.27447 15.0418 2.21078 14.9082 2.19685 14.7659C2.18293 14.6237 2.21969 14.4812 2.30117 14.3613L2.32672 14.328L14.9085 1.98444C14.9237 1.97003 14.9366 1.95366 14.9469 1.93572C14.9632 1.92074 14.9776 1.90394 14.9899 1.88578L15.7898 1.10193C15.8496 1.0439 15.9209 0.997799 15.9996 0.966384C16.0783 0.93497 16.1627 0.918828 16.248 0.918946C16.3315 0.919141 16.4142 0.935353 16.4911 0.966587C16.568 0.997822 16.6376 1.04344 16.6956 1.10078C16.8189 1.21845 16.8881 1.37799 16.8881 1.5443C16.8881 1.71062 16.8189 1.87016 16.6956 1.98783L15.148 3.5068C16.4817 4.74192 17.5255 6.23271 18.2106 7.88078C18.2766 8.03884 18.2766 8.21497 18.2106 8.37303C16.3863 12.5363 13.1469 15.0166 9.54134 15.0166H9.53211C7.87164 14.9995 6.2599 14.4792 4.93006 13.5309L3.27895 15.1496C3.22047 15.2074 3.15037 15.2534 3.07287 15.2849C2.99536 15.3163 2.91211 15.3325 2.82789 15.3326C2.7433 15.3332 2.65944 15.3168 2.58192 15.2845C2.5044 15.2522 2.43486 15.2047 2.37782 15.1452ZM7.62296 10.8799C7.9897 11.1245 8.40401 11.2966 8.8416 11.3861C9.2792 11.4755 9.73116 11.4805 10.1708 11.4007C10.6105 11.3209 11.029 11.158 11.4015 10.9216C11.7741 10.6851 12.0931 10.3799 12.34 10.024C12.7349 9.46233 12.9422 8.79976 12.9343 8.12359C12.936 7.45696 12.7339 6.80425 12.3529 6.24535L11.4227 7.15899C11.5804 7.45824 11.662 7.78868 11.661 8.12359C11.669 8.66715 11.4507 9.19155 11.0538 9.58172C10.6568 9.97189 10.1138 10.1959 9.54375 10.2046C9.1995 10.2067 8.86017 10.1267 8.5566 9.97185L7.62296 10.8799ZM0.879144 8.37195C0.811119 8.21465 0.811119 8.03808 0.879144 7.88078C2.69996 3.72301 5.94045 1.24492 9.53906 1.24492H9.54602C10.7606 1.24782 11.9568 1.52846 13.0342 2.06321L10.1948 4.85164C9.98104 4.81469 9.76438 4.79505 9.54715 4.7929C8.63177 4.80575 7.7593 5.1648 7.12151 5.79107C6.48372 6.41734 6.13293 7.25957 6.14629 8.13246C6.14812 8.34503 6.16784 8.55708 6.20548 8.76661L3.05697 11.8556C2.14878 10.8062 1.4125 9.63166 0.873325 8.37195H0.879144Z" fill="#C0BDCC" />
</svg>