<svg width="76" height="76" viewBox="0 0 76 76" fill="none" xmlns="http://www.w3.org/2000/svg">
  <circle cx="38" cy="38" r="38" fill="#62D19E" />
  <path d="M47.1266 29.1353C46.2241 28.6494 45.2175 29.5866 44.6274 30.142C43.2737 31.461 42.1282 32.9883 40.8438 34.3768C39.4206 35.9041 38.1016 37.4314 36.6437 38.924C35.8106 39.7571 34.9081 40.6596 34.3528 41.701C33.1031 40.486 32.0271 39.167 30.6386 38.091C29.632 37.3273 27.9658 36.7719 28.0005 38.6116C28.07 41.0068 30.1874 43.5754 31.7494 45.2068C32.4089 45.9011 33.2767 46.63 34.2833 46.6647C35.4982 46.7341 36.7478 45.2763 37.4768 44.4779C38.7612 43.0894 39.8025 41.5274 40.9827 40.1042C42.51 38.2298 44.072 36.39 45.5646 34.4809C46.5018 33.3007 49.4523 30.3849 47.1266 29.1353ZM29.5278 38.4728C29.4931 38.4728 29.4584 38.4728 29.3889 38.5074C29.2501 38.4728 29.146 38.438 29.0071 38.3686C29.1112 38.2992 29.2848 38.3339 29.5278 38.4728Z" fill="white" />
</svg>