<svg width="56" height="32" viewBox="0 0 56 32" fill="none" xmlns="http://www.w3.org/2000/svg">
  <rect x="0.5" width="55" height="32" rx="8" fill="#232962" />
  <g clip-path="url(#clip0_114_3260)">
    <path d="M26.7042 13.1396C26.6808 14.9433 28.3479 15.9498 29.6037 16.5482C30.8939 17.1622 31.3273 17.556 31.3222 18.1051C31.3125 18.9454 30.293 19.3163 29.3389 19.3307C27.6744 19.3559 26.7066 18.8912 25.9372 18.5397L25.3376 21.2837C26.1095 21.6315 27.5389 21.9349 29.0212 21.9482C32.5006 21.9482 34.7769 20.2686 34.7892 17.6644C34.8028 14.3592 30.1146 14.1763 30.1466 12.699C30.1577 12.251 30.5947 11.773 31.5525 11.6515C32.0265 11.5901 33.3352 11.5431 34.8188 12.2112L35.4012 9.55642C34.6033 9.2723 33.5778 9.00024 32.301 9.00024C29.0262 9.00024 26.7228 10.7028 26.7042 13.1396ZM40.9967 9.22892C40.3614 9.22892 39.826 9.59135 39.587 10.1475L34.6169 21.7532H38.0937L38.7856 19.8833H43.0342L43.4356 21.7532H46.5L43.8259 9.22892H40.9967ZM41.4831 12.6122L42.4865 17.3152H39.7385L41.4831 12.6122ZM22.4887 9.22907L19.7481 21.7531H23.0613L25.8006 9.22876H22.4887V9.22907ZM17.5875 9.22876L14.139 17.7535L12.744 10.5053C12.5803 9.69613 11.934 9.22892 11.2161 9.22892H5.57896L5.5 9.5926C6.65729 9.83819 7.97217 10.2343 8.76879 10.6581C9.2563 10.917 9.39532 11.1434 9.55548 11.7586L12.1976 21.7532H15.6988L21.0665 9.22892H17.5875" fill="white" />
  </g>
  <defs>
    <clipPath id="clip0_114_3260">
      <rect width="41" height="13" fill="white" transform="translate(5.5 9)" />
    </clipPath>
  </defs>
</svg>