<svg width="19" height="19" viewBox="0 0 19 19" fill="none" xmlns="http://www.w3.org/2000/svg">
  <g clip-path="url(#clip0_114_4211)">
    <path fill-rule="evenodd" clip-rule="evenodd" d="M9.06782 0.386139C9.16003 0.333402 9.26438 0.305664 9.37057 0.305664C9.47676 0.305664 9.58111 0.333402 9.67332 0.386139L18.2187 5.27535C18.3121 5.32878 18.3897 5.40599 18.4438 5.49915C18.4978 5.59231 18.5263 5.69811 18.5263 5.80583V6.68589C18.5263 12.2254 14.8579 17.095 9.53781 18.6156C9.42849 18.6468 9.31264 18.6468 9.20332 18.6156C6.61407 17.8748 4.33622 16.3099 2.71444 14.1574C1.09267 12.0049 0.21521 9.38216 0.214844 6.68589L0.214844 5.80583C0.214878 5.69811 0.24335 5.59231 0.297374 5.49915C0.351398 5.40599 0.429055 5.32878 0.522476 5.27535L9.06782 0.386139ZM8.84808 13.3976L14.1193 6.79834L13.1671 6.03563L8.67229 11.6594L5.48854 9.00338L4.70725 9.94211L8.84808 13.3976Z" fill="#2CAF82" />
  </g>
  <defs>
    <clipPath id="clip0_114_4211">
      <rect width="18.3114" height="18.3345" fill="white" transform="translate(0.214844 0.305664)" />
    </clipPath>
  </defs>
</svg>